<svg width="24" height="24" viewBox="0 0 24 24" fill="none" xmlns="http://www.w3.org/2000/svg">
<path d="M12 15C11.8684 15.0008 11.7379 14.9755 11.6161 14.9258C11.4943 14.876 11.3834 14.8027 11.29 14.71L7.29 10.71C7.1017 10.5217 6.99591 10.2663 6.99591 10C6.99591 9.7337 7.1017 9.47831 7.29 9.29C7.47831 9.1017 7.7337 8.99591 8 8.99591C8.2663 8.99591 8.5217 9.1017 8.71 9.29L12 12.59L15.29 9.3C15.4813 9.13618 15.7274 9.05057 15.9791 9.06029C16.2307 9.07001 16.4695 9.17434 16.6476 9.35244C16.8257 9.53053 16.93 9.76927 16.9397 10.0209C16.9494 10.2726 16.8638 10.5187 16.7 10.71L12.7 14.71C12.5137 14.8947 12.2623 14.9989 12 15Z" fill="#264065"/>
</svg>
