<svg width="22" height="28" viewBox="0 0 22 28" fill="none" xmlns="http://www.w3.org/2000/svg">
<path d="M20.3334 7.33335H16.3334V6.00002C16.3334 4.58553 15.7715 3.22898 14.7713 2.22878C13.7711 1.22859 12.4145 0.666687 11 0.666687C9.58555 0.666687 8.229 1.22859 7.2288 2.22878C6.22861 3.22898 5.66671 4.58553 5.66671 6.00002V7.33335H1.66671C1.31309 7.33335 0.973947 7.47383 0.723899 7.72388C0.47385 7.97393 0.333374 8.31306 0.333374 8.66669L0.333374 23.3334C0.333374 24.3942 0.754802 25.4116 1.50495 26.1618C2.25509 26.9119 3.27251 27.3334 4.33337 27.3334H17.6667C18.7276 27.3334 19.745 26.9119 20.4951 26.1618C21.2453 25.4116 21.6667 24.3942 21.6667 23.3334V8.66669C21.6667 8.31306 21.5262 7.97393 21.2762 7.72388C21.0261 7.47383 20.687 7.33335 20.3334 7.33335ZM8.33337 6.00002C8.33337 5.29278 8.61433 4.6145 9.11442 4.1144C9.61452 3.6143 10.2928 3.33335 11 3.33335C11.7073 3.33335 12.3856 3.6143 12.8857 4.1144C13.3858 4.6145 13.6667 5.29278 13.6667 6.00002V7.33335H8.33337V6.00002ZM19 23.3334C19 23.687 18.8596 24.0261 18.6095 24.2762C18.3595 24.5262 18.0203 24.6667 17.6667 24.6667H4.33337C3.97975 24.6667 3.64061 24.5262 3.39057 24.2762C3.14052 24.0261 3.00004 23.687 3.00004 23.3334L3.00004 10H5.66671V11.3334C5.66671 11.687 5.80718 12.0261 6.05723 12.2762C6.30728 12.5262 6.64642 12.6667 7.00004 12.6667C7.35366 12.6667 7.6928 12.5262 7.94285 12.2762C8.1929 12.0261 8.33337 11.687 8.33337 11.3334V10H13.6667V11.3334C13.6667 11.687 13.8072 12.0261 14.0572 12.2762C14.3073 12.5262 14.6464 12.6667 15 12.6667C15.3537 12.6667 15.6928 12.5262 15.9428 12.2762C16.1929 12.0261 16.3334 11.687 16.3334 11.3334V10H19V23.3334Z" fill="#264065"/>
</svg>
