<svg width="64" height="64" viewBox="0 0 64 64" fill="none" xmlns="http://www.w3.org/2000/svg">
<path d="M54 12H50C49.4696 12 48.9609 12.2107 48.5858 12.5858C48.2107 12.9608 48 13.4695 48 14V16H28.7568L26.3184 8.33197C25.7954 6.76636 24.6828 5.46621 23.2169 4.70753C21.7509 3.94886 20.047 3.79139 18.4668 4.26857C17.6666 4.50133 16.9213 4.89242 16.2751 5.41865C15.6289 5.94487 15.095 6.59551 14.705 7.33197C14.3264 8.04099 14.0942 8.81884 14.022 9.61934C13.9499 10.4198 14.0393 11.2267 14.285 11.992L15.56 16H6C5.46957 16 4.96086 16.2107 4.58579 16.5858C4.21071 16.9608 4 17.4695 4 18V58C4 58.5304 4.21071 59.0391 4.58579 59.4142C4.96086 59.7893 5.46957 60 6 60H54C55.5908 59.9982 57.1159 59.3655 58.2407 58.2407C59.3656 57.1158 59.9983 55.5907 60 54V18C59.9983 16.4092 59.3656 14.8841 58.2407 13.7593C57.1159 12.6344 55.5908 12.0017 54 12ZM29.834 32.5908L28.334 35.333L25.434 33.8466L19.98 16.6976L24.3654 15.392L29.834 32.5908ZM18.24 9.20317C18.3828 8.93771 18.5773 8.70359 18.8121 8.51464C19.047 8.3257 19.3173 8.18578 19.6072 8.10317C20.183 7.91896 20.808 7.9666 21.3492 8.23595C21.8905 8.5053 22.3053 8.97514 22.5056 9.54557L23.1528 11.58L18.7674 12.8856L18.0976 10.78C18.0143 10.521 17.984 10.248 18.0084 9.97708C18.0329 9.70618 18.1116 9.44298 18.24 9.20317ZM54 56H8V20H16.8316L21.873 35.8536C21.9532 36.1051 22.0823 36.3383 22.2529 36.5397C22.4235 36.7412 22.6323 36.9069 22.8672 37.0274L28.2422 39.78C28.5238 39.9247 28.8358 40.0001 29.1524 40H35C35.7956 40 36.5587 40.316 37.1213 40.8787C37.6839 41.4413 38 42.2043 38 43C38 43.7956 37.6839 44.5587 37.1213 45.1213C36.5587 45.6839 35.7956 46 35 46H14V50H35C36.8565 50 38.637 49.2625 39.9497 47.9497C41.2625 46.637 42 44.8565 42 43C42 41.1435 41.2625 39.363 39.9497 38.0502C38.637 36.7375 36.8565 36 35 36H32.528L33.754 33.76C33.8844 33.5229 33.9651 33.2617 33.9913 32.9924C34.0175 32.7231 33.9886 32.4513 33.9064 32.1936L30.0288 20H48V50C48 50.5304 48.2107 51.0391 48.5858 51.4142C48.9609 51.7893 49.4696 52 50 52H54C54.5304 52 55.0391 52.2107 55.4142 52.5858C55.7893 52.9608 56 53.4695 56 54C56 54.5304 55.7893 55.0391 55.4142 55.4142C55.0391 55.7893 54.5304 56 54 56ZM56 48.3428C55.3578 48.1153 54.6813 47.9994 54 48H52V16H54C54.5303 16.0005 55.0387 16.2114 55.4136 16.5863C55.7886 16.9613 55.9995 17.4697 56 18V48.3428Z" fill="#FF872E"/>
</svg>
