<svg width="40" height="39" viewBox="0 0 40 39" fill="none" xmlns="http://www.w3.org/2000/svg">
<path d="M8.75007 18.7497C8.75007 18.4182 8.88177 18.1003 9.11619 17.8659C9.35061 17.6314 9.66855 17.4997 10.0001 17.4997L26.9876 17.4997L25.3626 15.8872C25.1272 15.6519 24.995 15.3326 24.995 14.9997C24.995 14.6669 25.1272 14.3476 25.3626 14.1122C25.5979 13.8769 25.9172 13.7446 26.2501 13.7446C26.5829 13.7446 26.9022 13.8769 27.1376 14.1122L30.8876 17.8622C31.061 18.038 31.1785 18.2612 31.2252 18.5037C31.2719 18.7462 31.2458 18.9971 31.1501 19.2247C31.0563 19.453 30.897 19.6484 30.6924 19.7863C30.4877 19.9243 30.2469 19.9985 30.0001 19.9997L10.0001 19.9997C9.66855 19.9997 9.35061 19.868 9.11619 19.6336C8.88177 19.3992 8.75007 19.0813 8.75007 18.7497Z" fill="#9E9D9B"/>
<path d="M25 22.4997C24.9991 22.3352 25.0306 22.1722 25.0928 22.0199C25.155 21.8676 25.2467 21.729 25.3625 21.6122L29.1125 17.8622C29.3479 17.6269 29.6671 17.4946 30 17.4946C30.1648 17.4946 30.328 17.5271 30.4803 17.5902C30.6326 17.6532 30.771 17.7457 30.8875 17.8622C31.0041 17.9788 31.0965 18.1172 31.1596 18.2694C31.2227 18.4217 31.2551 18.5849 31.2551 18.7497C31.2551 19.0826 31.1229 19.4019 30.8875 19.6372L27.1375 23.3872C27.0213 23.5044 26.8831 23.5974 26.7307 23.6609C26.5784 23.7243 26.415 23.757 26.25 23.757C26.085 23.757 25.9216 23.7243 25.7693 23.6609C25.617 23.5974 25.4787 23.5044 25.3625 23.3872C25.2467 23.2704 25.155 23.1319 25.0928 22.9796C25.0306 22.8273 24.9991 22.6643 25 22.4997Z" fill="#9E9D9B"/>
</svg>
