<svg width="24" height="24" viewBox="0 0 24 24" fill="none" xmlns="http://www.w3.org/2000/svg">
<path d="M15.0001 11.9998C15.0008 12.1314 14.9756 12.2619 14.9258 12.3837C14.8761 12.5056 14.8027 12.6164 14.7101 12.7098L10.7101 16.7098C10.5218 16.8981 10.2664 17.0039 10.0001 17.0039C9.73376 17.0039 9.47837 16.8981 9.29006 16.7098C9.10176 16.5215 8.99597 16.2661 8.99597 15.9998C8.99597 15.7335 9.10176 15.4781 9.29006 15.2898L12.5901 11.9998L9.30006 8.70982C9.13624 8.51851 9.05063 8.27244 9.06035 8.02076C9.07007 7.76909 9.17441 7.53035 9.3525 7.35225C9.53059 7.17416 9.76933 7.06983 10.021 7.06011C10.2727 7.05038 10.5188 7.13599 10.7101 7.29982L14.7101 11.2998C14.8948 11.4861 14.999 11.7375 15.0001 11.9998Z" fill="#424241"/>
</svg>
