<svg width="64" height="64" viewBox="0 0 64 64" fill="none" xmlns="http://www.w3.org/2000/svg">
<path opacity="0.99" d="M15.5119 37.571C14.9377 36.9968 14.0138 36.9968 13.4396 37.571L10.9344 40.0764L23.6832 52.8258L26.1884 50.3204C26.7626 49.7463 26.7626 48.8223 26.1884 48.2481L15.5119 37.571Z" fill="#7EDAD2"/>
<path opacity="0.99" d="M10.2621 39.4041L5.4204 44.2211C4.72901 44.9088 4.72901 46.0151 5.4204 46.7029L17.2009 58.4231C17.8923 59.1108 19.0051 59.1108 19.6964 58.4231L24.5008 53.6434L10.2621 39.4041Z" fill="#7EDAD2"/>
<path opacity="0.99" d="M35.1986 11.0388H44.8026C45.7829 11.0388 46.5721 11.828 46.5721 12.8084C46.5721 13.7887 45.7829 14.5779 44.8026 14.5779H35.1986C34.2182 14.5779 33.429 13.7887 33.429 12.8084C33.429 11.828 34.2182 11.0388 35.1986 11.0388Z" fill="#7EDAD2"/>
<path d="M33.0004 5.06348L35.9887 11.0382H44.0123L47.0006 5.06348H33.0004Z" fill="#7EDAD2"/>
<path opacity="0.99" d="M32.9848 4.06697C32.2423 4.06847 31.7602 4.85007 32.0923 5.51426L34.4146 10.1628C33.2669 10.5018 32.4087 11.5587 32.4087 12.8074C32.4087 13.3667 32.5815 13.8893 32.8735 14.3269C29.2606 17.3514 26.4428 22.7603 25.846 29.919C25.8022 30.4691 26.2121 30.9506 26.7621 30.9952C27.3093 31.0404 27.7906 30.6358 27.8402 30.089C28.4282 23.0358 31.3496 18.0423 34.6392 15.5535C38.1948 15.6056 41.7872 15.5533 45.3603 15.5622C48.275 17.8136 50.913 22.3579 51.8529 28.0068C51.9453 28.5508 52.4611 28.9171 53.0052 28.8252C53.5515 28.7364 53.9218 28.2208 53.8314 27.6748C52.8729 21.9138 50.3326 17.0957 47.093 14.3269C47.385 13.8892 47.5578 13.3666 47.5578 12.8073C47.5578 11.5586 46.6996 10.5017 45.552 10.1627L47.8743 5.51419C48.2063 4.85 47.7242 4.06838 46.9817 4.06689L32.9848 4.06697ZM34.6021 6.05919H45.364L43.3796 10.0378H36.5865L34.6021 6.05919ZM35.1399 12.0228L44.782 12.0398C45.2256 12.0406 45.5574 12.3638 45.5574 12.8074C45.5574 13.2061 45.2813 13.4945 44.905 13.5516L35.1334 13.5709C34.6473 13.5709 34.4063 13.1998 34.4063 12.7872C34.423 12.3636 34.7118 12.023 35.1399 12.023V12.0228ZM38.9869 19.1708V19.8446C38.784 19.914 38.5832 19.9966 38.3951 20.1083C37.5381 20.617 36.9792 21.4933 36.8834 22.4853C36.7875 23.4773 37.1696 24.4526 37.9166 25.1123C38.4525 25.5857 39.0671 25.8044 39.821 26.0763C40.7236 26.427 41.0947 26.7939 41.0905 27.4151C41.1037 27.7422 40.8278 28.096 40.5436 28.2647C40.2593 28.4335 39.8334 28.467 39.5319 28.3389C39.2302 28.2109 38.9641 27.888 38.8912 27.5713C38.769 27.0324 38.2328 26.6947 37.6939 26.8174C37.1557 26.9405 36.8191 27.4765 36.9419 28.0147C37.1656 28.9859 37.8333 29.7874 38.7506 30.1769C38.8272 30.2094 38.9087 30.2191 38.9869 30.2452V30.923C38.9849 31.4753 39.4307 31.9248 39.983 31.9269C40.5353 31.9247 40.9813 31.4753 40.9791 30.923V30.2472C41.182 30.1778 41.3829 30.0971 41.571 29.9854C42.4279 29.4767 42.9869 28.6004 43.0827 27.6084C43.1785 26.6165 42.7964 25.647 42.0495 24.9873C41.7628 24.7341 41.3624 24.5108 40.5569 24.2191C39.7514 23.9273 39.4367 23.7838 39.2447 23.6142C39.0005 23.3985 38.8442 23.0012 38.8756 22.6767C38.907 22.3521 39.1382 21.9958 39.4225 21.8271C39.7068 21.6583 40.1327 21.6326 40.4342 21.7606C40.7358 21.8887 41.002 22.2116 41.0749 22.5282C41.2006 23.064 41.7357 23.3975 42.2721 23.2744C42.8094 23.1512 43.1457 22.6166 43.0241 22.079C42.8005 21.1078 42.1328 20.3043 41.2155 19.9149C41.1389 19.8824 41.0574 19.8727 40.9791 19.8465V19.1707C40.9781 18.6207 40.533 18.1748 39.983 18.1749C39.433 18.1749 38.988 18.6208 38.9869 19.1708L38.9869 19.1708ZM55.4853 29.1202L47.1726 35.4973C46.5657 34.4623 45.4515 33.756 44.1687 33.7648L36.1587 33.8156C34.4151 33.8373 31.4754 32.392 27.9125 32.1925C24.5447 32.004 20.6199 32.9336 16.6095 37.2766L16.1974 36.8645C15.0733 35.7404 13.6444 35.933 12.713 36.8645L10.9082 38.6692C10.464 38.2582 9.92977 38.3059 9.53907 38.6965L4.69718 43.5091C3.62569 44.575 3.62567 46.3476 4.69718 47.4135L16.4787 59.1286C17.5504 60.1947 19.3113 60.1947 20.383 59.1286L25.1898 54.3531C25.7399 53.803 25.5146 53.2599 25.0784 52.8238L26.8792 51.023C27.7746 50.1276 27.8179 48.6885 27.0316 47.726C27.657 46.996 29.0354 45.814 31.4633 45.8783C35.8777 45.9953 39.3847 46.227 42.1979 46.1068C45.0111 45.9866 47.24 45.5046 48.7898 43.9584C53.3545 39.4041 58.9111 33.882 58.9111 33.882C59.6964 33.0936 59.8613 32.7144 60.0138 32.1445C60.21 31.468 60.1 30.6579 59.6553 29.9698C59.2155 29.2892 58.5107 28.8153 57.751 28.6417C56.9345 28.4252 56.161 28.6284 55.4853 29.1202L55.4853 29.1202ZM57.9465 32.1477C57.9465 32.1477 51.9289 37.9957 47.3718 42.5423C46.3623 43.5496 44.7363 44.0024 42.11 44.1146C39.4837 44.2269 35.9723 43.9964 31.516 43.8783C28.5536 43.7998 26.6389 45.2857 25.6604 46.3217L18.0372 38.7024C25.6061 30.3736 31.0298 35.8819 36.1821 35.8176L44.1842 35.7649C45.019 35.7591 45.6589 36.404 45.6589 37.2415C45.6589 38.0789 45.0195 38.7259 44.1764 38.7259H34.0395C33.4872 38.7281 33.0412 39.1775 33.0434 39.7298C33.0454 40.279 33.4902 40.7238 34.0395 40.7259H44.1764C45.9408 40.7259 47.3964 39.3864 47.6159 37.679L56.704 30.7081C57.1317 30.3843 57.6269 30.5853 57.9164 30.9302C58.206 31.2751 58.2937 31.8006 57.9463 32.1477H57.9465ZM14.7872 38.2747L25.4632 48.9565C25.6581 49.1514 25.6581 49.4179 25.4632 49.6128L23.6683 51.4156L12.3301 40.0755L14.131 38.2747C14.3851 38.0206 14.6848 38.1723 14.7872 38.2747ZM10.2402 40.8138L23.0533 53.6555L18.9729 57.7126C18.6618 58.022 18.1999 58.022 17.8888 57.7126L6.10736 45.9955C5.79607 45.6859 5.79607 45.2349 6.10736 44.9252L10.2402 40.8138ZM17.9982 53.5562C17.6558 54.0308 17.7634 54.6931 18.2385 55.0348C18.7126 55.3758 19.3734 55.2683 19.715 54.7945C20.0565 54.3209 19.9499 53.6601 19.4768 53.3179C18.9353 52.9715 18.3539 53.0799 17.9982 53.5562L17.9982 53.5562Z" fill="#424241"/>
</svg>
