<svg width="161" height="32" viewBox="0 0 161 32" fill="none" xmlns="http://www.w3.org/2000/svg">
<path d="M3.284 6.952L0.584 6.484V4.252H6.02C6.524 4.252 7.304 4.228 8.36 4.18C9.752 4.084 11.012 4.036 12.14 4.036C14.636 4.036 16.604 4.348 18.044 4.972C19.508 5.572 20.54 6.448 21.14 7.6C21.764 8.728 22.076 10.168 22.076 11.92C22.076 14.944 21.128 17.296 19.232 18.976C17.36 20.656 14.756 21.496 11.42 21.496C10.1 21.496 9.152 21.46 8.576 21.388V28.48L13.4 28.84V31H0.44V28.84L3.284 28.48V6.952ZM8.54 19.084C9.092 19.204 10.028 19.264 11.348 19.264C12.956 19.264 14.24 18.712 15.2 17.608C16.184 16.48 16.676 14.62 16.676 12.028C16.676 10.012 16.232 8.548 15.344 7.636C14.48 6.7 13.148 6.232 11.348 6.232C10.676 6.232 9.98 6.28 9.26 6.376C8.924 6.424 8.684 6.448 8.54 6.448V19.084ZM24.4208 21.028C24.4208 18.772 24.8648 16.852 25.7528 15.268C26.6648 13.684 27.8768 12.496 29.3888 11.704C30.9008 10.888 32.5448 10.48 34.3208 10.48C37.3448 10.48 39.6728 11.416 41.3048 13.288C42.9608 15.136 43.7888 17.656 43.7888 20.848C43.7888 23.128 43.3328 25.072 42.4208 26.68C41.5328 28.264 40.3328 29.452 38.8208 30.244C37.3328 31.012 35.6888 31.396 33.8888 31.396C30.8888 31.396 28.5608 30.472 26.9048 28.624C25.2488 26.752 24.4208 24.22 24.4208 21.028ZM34.1768 29.056C36.8888 29.056 38.2448 26.44 38.2448 21.208C38.2448 18.472 37.9208 16.396 37.2728 14.98C36.6248 13.54 35.5688 12.82 34.1048 12.82C31.3208 12.82 29.9288 15.436 29.9288 20.668C29.9288 23.404 30.2648 25.492 30.9368 26.932C31.6328 28.348 32.7128 29.056 34.1768 29.056ZM47.0614 28.876L49.4374 28.588V14.404L47.1334 13.756V11.272L52.7134 10.516H52.8214L53.7214 11.236V12.028L53.6134 14.944H53.7214C53.8894 14.464 54.2854 13.876 54.9094 13.18C55.5334 12.46 56.3134 11.836 57.2494 11.308C58.2094 10.756 59.2414 10.48 60.3454 10.48C60.8734 10.48 61.3294 10.552 61.7134 10.696V16.096C60.9934 15.592 60.1174 15.34 59.0854 15.34C57.3334 15.34 55.8094 15.808 54.5134 16.744V28.552L58.6894 28.876V31H47.0614V28.876ZM70.0547 31.324C68.5427 31.324 67.4267 30.976 66.7067 30.28C65.9867 29.584 65.6267 28.48 65.6267 26.968V13.756H63.2867V11.884C63.4787 11.812 63.8267 11.692 64.3307 11.524C64.8347 11.332 65.2187 11.176 65.4827 11.056C65.8907 10.744 66.2387 10.204 66.5267 9.436C66.7427 8.932 67.1387 7.684 67.7147 5.692H70.5947L70.7387 10.984H76.2467V13.756H70.7747V23.872C70.7747 25.216 70.8107 26.164 70.8827 26.716C70.9547 27.268 71.1107 27.628 71.3507 27.796C71.5907 27.94 72.0107 28.012 72.6107 28.012C73.2107 28.012 73.8347 27.952 74.4827 27.832C75.1307 27.688 75.6707 27.52 76.1027 27.328L76.7867 29.344C76.1147 29.848 75.1307 30.304 73.8347 30.712C72.5387 31.12 71.2787 31.324 70.0547 31.324Z" fill="#E9204F"/>
<path d="M81.186 13.792H78.162V11.776L81.186 11.056V9.472C81.186 7.912 81.594 6.484 82.41 5.188C83.25 3.892 84.366 2.872 85.758 2.128C87.15 1.36 88.626 0.975998 90.186 0.975998C91.002 0.975998 91.77 1.096 92.49 1.336V5.944C92.25 5.704 91.77 5.464 91.05 5.224C90.354 4.984 89.622 4.864 88.854 4.864C87.918 4.864 87.246 5.104 86.838 5.584C86.454 6.04 86.262 6.832 86.262 7.96V11.02H90.834V13.792H86.262V28.552L90.042 28.84V31H78.342V28.84L81.186 28.516V13.792ZM93.3973 21.028C93.3973 18.772 93.8413 16.852 94.7293 15.268C95.6413 13.684 96.8533 12.496 98.3653 11.704C99.8773 10.888 101.521 10.48 103.297 10.48C106.321 10.48 108.649 11.416 110.281 13.288C111.937 15.136 112.765 17.656 112.765 20.848C112.765 23.128 112.309 25.072 111.397 26.68C110.509 28.264 109.309 29.452 107.797 30.244C106.309 31.012 104.665 31.396 102.865 31.396C99.8653 31.396 97.5373 30.472 95.8813 28.624C94.2253 26.752 93.3973 24.22 93.3973 21.028ZM103.153 29.056C105.865 29.056 107.221 26.44 107.221 21.208C107.221 18.472 106.897 16.396 106.249 14.98C105.601 13.54 104.545 12.82 103.081 12.82C100.297 12.82 98.9053 15.436 98.9053 20.668C98.9053 23.404 99.2413 25.492 99.9133 26.932C100.609 28.348 101.689 29.056 103.153 29.056ZM118.126 4.684L115.462 4.216V2.272L122.122 1.48H122.194L123.166 2.164V28.552L125.794 28.84V31H115.606V28.84L118.126 28.516V4.684ZM132.556 7.708C131.692 7.708 131.008 7.456 130.504 6.952C130 6.448 129.748 5.8 129.748 5.008C129.748 4.096 130.036 3.34 130.612 2.74C131.188 2.14 131.956 1.84 132.916 1.84C133.876 1.84 134.608 2.104 135.112 2.632C135.616 3.136 135.868 3.772 135.868 4.54C135.868 5.5 135.58 6.268 135.004 6.844C134.428 7.42 133.624 7.708 132.592 7.708H132.556ZM130.648 14.404L128.092 13.72V11.308L134.68 10.516H134.752L135.76 11.236V28.552L138.172 28.84V31H128.128V28.84L130.648 28.516V14.404ZM140.753 21.028C140.753 18.772 141.197 16.852 142.085 15.268C142.997 13.684 144.209 12.496 145.721 11.704C147.233 10.888 148.877 10.48 150.653 10.48C153.677 10.48 156.005 11.416 157.637 13.288C159.293 15.136 160.121 17.656 160.121 20.848C160.121 23.128 159.665 25.072 158.753 26.68C157.865 28.264 156.665 29.452 155.153 30.244C153.665 31.012 152.021 31.396 150.221 31.396C147.221 31.396 144.893 30.472 143.237 28.624C141.581 26.752 140.753 24.22 140.753 21.028ZM150.509 29.056C153.221 29.056 154.577 26.44 154.577 21.208C154.577 18.472 154.253 16.396 153.605 14.98C152.957 13.54 151.901 12.82 150.437 12.82C147.653 12.82 146.261 15.436 146.261 20.668C146.261 23.404 146.597 25.492 147.269 26.932C147.965 28.348 149.045 29.056 150.509 29.056Z" fill="white"/>
</svg>
