<svg width="96" height="96" viewBox="0 0 96 96" fill="none" xmlns="http://www.w3.org/2000/svg">
<path d="M36.8748 32.5497V65.3824C36.8748 65.3824 41.5816 67.5679 55.9445 67.5679C66.4764 67.5679 75.0142 65.5579 75.0142 63.0784V32.5497H36.8748Z" fill="#E4E5E6"/>
<path d="M75.0177 32.5491V63.08C75.0177 65.5599 66.4765 67.5662 55.9451 67.5662C55.1576 67.5662 54.3965 67.5609 53.6675 67.5449C63.2835 67.3107 70.7817 65.4055 70.7817 63.08V32.5491H75.0177Z" fill="#D4D4D4"/>
<path d="M36.8748 53.9557V65.3823C36.8748 65.3823 41.5816 67.5677 55.9445 67.5677C66.4764 67.5677 75.0142 65.5578 75.0142 63.0785V53.6028L36.8748 53.9557Z" fill="#FFAD31"/>
<path d="M75.0182 53.6014V63.0799C75.0182 65.5599 66.477 67.5663 55.9457 67.5663C55.1793 67.5663 54.4397 67.561 53.7266 67.545C63.3427 67.3162 70.8515 65.4055 70.8515 63.0799V53.6386L75.0182 53.6014Z" fill="#FF8D29"/>
<path d="M55.9445 58.4175C66.4764 58.4175 75.0142 56.366 75.0142 53.8353C75.0142 51.3047 66.4764 49.2532 55.9445 49.2532C45.4126 49.2532 36.8748 51.3047 36.8748 53.8353C36.8748 56.366 45.4126 58.4175 55.9445 58.4175Z" fill="#FFAD31"/>
<path d="M75.0176 53.8356C75.0176 56.3634 66.476 58.4176 55.9442 58.4176C55.0766 58.4176 54.2252 58.4016 53.3896 58.375C62.7135 58.0769 69.9087 56.1559 69.9087 53.8356C69.9087 51.51 62.7135 49.5943 53.3896 49.2963C54.2252 49.2696 55.0766 49.2538 55.9442 49.2538C66.476 49.2538 75.0176 51.3025 75.0176 53.8356Z" fill="#FF8D29"/>
<path d="M35.9658 27.6106V30.9793C35.9658 33.5768 44.9103 35.6826 55.9439 35.6826C66.9774 35.6826 75.9219 33.5768 75.9219 30.9793V27.6106H35.9658Z" fill="#FF6B6E"/>
<path d="M75.9215 27.6102V30.9786C75.9215 33.5755 66.9809 35.6827 55.9434 35.6827C55.044 35.6827 54.1552 35.6667 53.2878 35.6401C63.0693 35.3368 70.6103 33.3626 70.6103 30.9787V27.6102H75.9215V27.6102Z" fill="#DB4A4D"/>
<path d="M55.9439 32.1001C66.9774 32.1001 75.9219 29.9896 75.9219 27.3861C75.9219 24.7826 66.9774 22.6721 55.9439 22.6721C44.9103 22.6721 35.9658 24.7826 35.9658 27.3861C35.9658 29.9896 44.9103 32.1001 55.9439 32.1001Z" fill="#FFAD31"/>
<path d="M38.853 27.9682C38.6009 27.9682 38.3529 27.849 38.1977 27.6266C37.9454 27.2652 38.0339 26.7676 38.3954 26.5152C39.2886 25.8919 40.7056 25.3496 42.6073 24.9033C43.0358 24.8031 43.4661 25.069 43.5669 25.4981C43.6676 25.9273 43.4013 26.3569 42.972 26.4577C40.8497 26.9557 39.8087 27.4757 39.3092 27.8243C39.17 27.9215 39.0108 27.9682 38.853 27.9682ZM48.9481 52.2719C48.6182 52.2719 48.3096 52.0658 48.1945 51.7369C48.0491 51.3206 48.2685 50.8653 48.6847 50.7198C49.3366 50.492 50.193 50.3511 51.2304 50.3011C51.6735 50.2799 52.045 50.6195 52.0663 51.06C52.0875 51.5004 51.7477 51.8746 51.3073 51.8958C50.4234 51.9384 49.7184 52.0497 49.2116 52.227C49.1244 52.2573 49.0355 52.2719 48.9481 52.2719Z" fill="#FFE8C4"/>
<path d="M75.9245 27.3874C75.9245 29.9897 66.9839 32.1026 55.9464 32.1026C55.164 32.1026 54.3924 32.092 53.6313 32.0706C63.5725 31.7992 71.2892 29.8035 71.2892 27.3874C71.2892 24.9712 63.5725 22.9755 53.6313 22.7041C54.3924 22.6828 55.164 22.6721 55.9464 22.6721C66.9839 22.6721 75.9245 24.785 75.9245 27.3874Z" fill="#FF8D29"/>
<path d="M56.6572 52.9657C57.8214 50.9993 59.5837 51.2605 59.5837 51.2605C59.5837 51.2605 64.1348 36.0841 68.013 37.0427C69.9964 37.533 68.013 44.3967 61.0713 51.7507C61.0713 51.7507 61.6012 52.6489 61.3253 53.9171L56.6572 52.9657Z" fill="#FF6B6E"/>
<path d="M61.074 51.7489C61.074 51.7489 61.6008 52.6482 61.3241 53.9147L59.4882 53.5422C59.4882 53.5336 59.4881 53.525 59.488 53.5164C59.4736 52.4568 59.8179 51.4313 60.5103 50.6291C66.0763 44.1798 67.7895 38.4337 66.3317 37.5245C66.8957 37.0934 67.4598 36.9019 68.0132 37.0402C69.9981 37.5352 68.0132 44.3945 61.074 51.7489Z" fill="#DB4A4D"/>
<path d="M64.1621 54.5483C61.6792 51.4385 58.1203 53.2389 58.1203 53.2389C55.6373 50.7838 52.9889 52.9116 52.9889 52.9116C52.9889 52.9116 52.3143 53.7104 52.5563 54.2922C53.0941 55.5851 61.0597 55.4446 63.3115 55.4507C64.7988 55.4546 64.1621 54.5483 64.1621 54.5483Z" fill="#FF8D29"/>
<path d="M42.5387 46.7119C45.524 47.9449 47.7745 50.9488 47.7745 54.3477V74.3022L47.7152 74.2877C47.7152 75.9976 42.3414 77.3837 35.7125 77.3837C29.0835 77.3837 23.7097 75.9976 23.7097 74.2877V74.3022V54.3477C23.7097 50.9617 25.9499 47.9529 28.9172 46.7119H42.5387V46.7119Z" fill="#E4E5E6"/>
<path d="M47.7713 54.3464V74.3024L47.7127 74.2865C47.7127 75.9999 42.3379 77.3836 35.7125 77.3836C34.9569 77.3836 34.2118 77.3676 33.4934 77.3303C39.0651 77.0643 43.2798 75.8031 43.2798 74.2865L43.3384 74.3024V54.3464C43.3384 50.9513 41.0873 47.9446 38.1019 46.71H42.5401C45.5256 47.9446 47.7713 50.9512 47.7713 54.3464Z" fill="#D4D4D4"/>
<path d="M28.9141 45.1202V47.6295C28.9141 48.5998 31.9632 49.3863 35.7246 49.3863C39.486 49.3863 42.5351 48.5998 42.5351 47.6295V45.1202H28.9141Z" fill="#FFAD31"/>
<path d="M25.5266 72.3946C27.6462 73.2666 31.4057 73.8463 35.6902 73.8463C40.0465 73.8463 43.86 73.2469 45.9589 72.3505V54.2921C43.86 55.1886 40.0465 55.788 35.6902 55.788C31.4057 55.788 27.6462 55.2082 25.5266 54.3362V72.3946Z" fill="#FF6B6E"/>
<path d="M45.957 54.2932V72.3494C43.8604 73.2487 40.0449 73.8447 35.6867 73.8447C35.0162 73.8447 34.3617 73.8288 33.7231 73.8021C35.1237 73.7426 36.4419 73.6203 37.633 73.4463C40.1311 73.0815 41.9925 70.9597 41.9925 68.435V55.3256C43.6103 55.0648 44.9725 54.7135 45.957 54.2932Z" fill="#DB4A4D"/>
<path d="M42.541 45.1189V47.6307C42.541 48.5993 39.4919 49.3868 35.7297 49.3868C35.1177 49.3868 34.5218 49.3655 33.9524 49.3282C36.8471 49.126 38.981 48.4396 38.981 47.6307V45.1189H42.541V45.1189Z" fill="#FF8D29"/>
<path d="M27.1006 40.3182V44.0383C27.1006 45.2996 31.0647 46.3221 35.9546 46.3221C40.8446 46.3221 44.8086 45.2996 44.8086 44.0383V40.3182H27.1006Z" fill="#FF6B6E"/>
<path d="M35.9546 42.4866C40.8446 42.4866 44.8086 41.4816 44.8086 40.2418C44.8086 39.0021 40.8446 37.9971 35.9546 37.9971C31.0647 37.9971 27.1006 39.0021 27.1006 40.2418C27.1006 41.4816 31.0647 42.4866 35.9546 42.4866Z" fill="#FFAD31"/>
<path d="M44.8075 40.3186V44.0384C44.8075 45.2996 40.8428 46.3213 35.9523 46.3213C35.3457 46.3213 34.755 46.3054 34.1802 46.2735C38.2193 46.0606 41.2526 45.14 41.2526 44.0384V40.3186H44.8075V40.3186Z" fill="#DB4A4D"/>
<path d="M44.8075 40.244C44.8075 41.484 40.8428 42.4844 35.9523 42.4844C35.3457 42.4844 34.755 42.4685 34.1802 42.4365C38.2193 42.2289 41.2526 41.3296 41.2526 40.244C41.2526 39.1584 38.2193 38.2537 34.1802 38.0462C34.7549 38.0143 35.3456 37.9983 35.9523 37.9983C40.8428 37.9983 44.8075 39.004 44.8075 40.244Z" fill="#FF8D29"/>
<path d="M29.8966 40.9151C29.5668 40.9151 29.2582 40.7091 29.1431 40.3802C28.9976 39.964 29.2169 39.5087 29.633 39.3632C30.2848 39.135 31.1413 38.9942 32.1788 38.9443C32.6192 38.9231 32.9932 39.2629 33.0144 39.7033C33.0356 40.1436 32.6957 40.5178 32.2554 40.5389C31.3717 40.5814 30.6668 40.6928 30.1602 40.87C30.073 40.9005 29.984 40.9151 29.8966 40.9151ZM41.1886 62.854C41.0328 62.854 40.8852 62.8831 40.7429 62.9244C40.0851 60.6803 37.9949 59.038 35.5131 59.038C33.0314 59.038 30.9412 60.6802 30.2833 62.9244C30.141 62.8831 29.9935 62.854 29.8377 62.854C28.96 62.854 28.2485 63.5575 28.2485 64.4253C28.2485 65.2931 28.96 65.9966 29.8377 65.9966C29.9935 65.9966 30.141 65.9675 30.2833 65.9262C30.9412 68.1704 33.0314 69.8127 35.5131 69.8127C37.9949 69.8127 40.0851 68.1704 40.7429 65.9262C40.8852 65.9675 41.0328 65.9966 41.1886 65.9966C42.0662 65.9966 42.7777 65.2931 42.7777 64.4253C42.7777 63.5575 42.0662 62.854 41.1886 62.854Z" fill="#FFE8C4"/>
<path d="M41.6282 63.7949C41.4724 63.7949 41.3249 63.824 41.1825 63.8653C40.5247 61.6211 38.4344 59.9788 35.9526 59.9788C33.4708 59.9788 31.3805 61.621 30.7226 63.8653C30.5803 63.824 30.4328 63.7949 30.2769 63.7949C29.3993 63.7949 28.6877 64.4984 28.6877 65.3662C28.6877 66.234 29.3993 66.9375 30.2769 66.9375C30.4328 66.9375 30.5803 66.9084 30.7226 66.8671C31.3805 69.1113 33.4708 70.7536 35.9526 70.7536C38.4344 70.7536 40.5247 69.1113 41.1825 66.8671C41.3249 66.9084 41.4724 66.9375 41.6282 66.9375C42.5059 66.9375 43.2174 66.234 43.2174 65.3662C43.2174 64.4984 42.5059 63.7949 41.6282 63.7949Z" fill="#DB4A4D"/>
<path d="M41.1886 62.8539C41.0328 62.8539 40.8852 62.883 40.7429 62.9244C40.0851 60.6801 37.9949 59.0378 35.5131 59.0378C33.0314 59.0378 30.9412 60.6801 30.2833 62.9244C30.141 62.883 29.9935 62.8539 29.8377 62.8539C28.96 62.8539 28.2485 63.5574 28.2485 64.4253C28.2485 65.2931 28.96 65.9966 29.8377 65.9966C29.9935 65.9966 30.141 65.9675 30.2833 65.9262C30.9412 68.1704 33.0314 69.8127 35.5131 69.8127C37.9949 69.8127 40.0851 68.1704 40.7429 65.9262C40.8852 65.9675 41.0328 65.9966 41.1886 65.9966C42.0662 65.9966 42.7777 65.2931 42.7777 64.4253C42.7777 63.5575 42.0662 62.8539 41.1886 62.8539Z" fill="#FFE8C4"/>
<path d="M35.7531 63.3062C35.7476 63.3062 35.7423 63.3062 35.7368 63.3062C35.0499 63.2994 34.4817 62.8714 34.2171 62.1612C33.6042 60.5162 34.907 59.1851 35.6815 58.7109C35.9322 58.5576 36.2597 58.6362 36.4131 58.887C36.5663 59.1372 36.4879 59.4642 36.2381 59.618C36.1709 59.6599 34.7563 60.5603 35.2143 61.7896C35.3253 62.0874 35.5045 62.2396 35.7473 62.242C35.9847 62.2399 36.1943 62.1026 36.2471 61.9688C36.2957 61.8457 36.1793 61.7036 36.0731 61.6061C35.8566 61.4073 35.8423 61.0707 36.0411 60.8543C36.2397 60.6377 36.5763 60.6235 36.7928 60.8222C37.2832 61.2725 37.4451 61.8329 37.2369 62.3598C37.0161 62.9188 36.4074 63.3062 35.7531 63.3062Z" fill="#FFAD31"/>
<path d="M27.1017 61.3833C26.6609 61.3833 26.3035 61.0259 26.3035 60.5851V57.7697C26.3035 57.3289 26.6609 56.9714 27.1017 56.9714C27.5425 56.9714 27.8999 57.3288 27.8999 57.7697V60.5851C27.8999 61.0259 27.5425 61.3833 27.1017 61.3833Z" fill="#FFD4D5"/>
</svg>
