<svg width="96" height="96" viewBox="0 0 96 96" fill="none" xmlns="http://www.w3.org/2000/svg">
<path d="M57.4773 23.3594H23.6987V62.0355H57.4773V23.3594Z" fill="#FFAD31"/>
<path d="M57.4773 62.0354V67.3072L42.7789 67.3195L40.6064 65.1531L39.195 66.5584L38.5505 67.2029L36.5314 65.2022L34.4754 67.2335L32.3213 65.0978L30.0874 67.3072L27.9333 65.1776L25.8467 67.2397L23.6987 65.1162V62.0354H57.4773Z" fill="#FF6B6E"/>
<path d="M39.9387 62.0356C40.5033 59.0958 41.608 56.2789 43.1974 53.732C42.8967 53.5541 42.731 53.3516 42.731 53.1367V47.3433C42.731 46.5148 45.2596 45.8458 48.3773 45.8458C51.4948 45.8458 54.0234 46.5148 54.0234 47.3433V53.1367C54.0234 53.3516 53.8577 53.5541 53.557 53.732C55.1464 56.2789 56.2572 59.0958 56.8218 62.0356H39.9387Z" fill="#FF8D29"/>
<path d="M57.4779 66.0491V67.3072L42.7795 67.3195L40.607 65.1531L39.1956 66.5585L39.797 62.8148C39.8398 62.551 39.8828 62.2932 39.9381 62.0354H56.8212C56.8765 62.2932 56.9195 62.551 56.9625 62.8148L57.4779 66.0491Z" fill="#DB4A4D"/>
<path d="M57.4773 19.849V23.3594H23.6987V19.9656L25.8467 17.8422L27.9333 19.9043L30.0874 17.7685L32.3213 19.9779L34.4754 17.8483L36.5314 19.8736L38.5505 17.8729L40.5758 19.8736L42.7298 17.744L44.9392 19.9288L46.9891 17.9036L49.0144 19.9043L51.1193 17.8237L53.2735 19.9534L55.4276 17.8237L57.4773 19.849Z" fill="#FF6B6E"/>
<path d="M57.4805 23.3594V61.7849C53.5221 61.3062 52.8164 59.6921 52.8164 59.6921C52.8164 59.6921 47.2685 49.6393 52.8164 37.9723H52.8654C52.4911 37.512 52.3439 36.8921 52.4911 36.2845L52.5157 36.1802H52.6691C52.1659 35.8856 51.816 35.5542 51.6687 35.1982C49.2446 29.7667 51.5829 26.0107 51.5829 26.0107C51.5829 24.7771 53.9578 23.7277 57.2535 23.3594H57.4805V23.3594ZM44.7078 37.5606V37.5667C44.5974 37.9534 44.4992 38.1866 44.4992 38.1866C39.3747 51.351 28.991 46.7972 28.991 46.7972C37.8344 45.5267 38.8285 36.2472 38.8285 36.2472C38.8285 36.2472 40.2462 34.9522 41.2896 34.5901C41.2896 34.5901 42.0381 35.9772 42.026 36.6584L43.1858 34.8847C43.1858 34.8847 44.3212 35.6825 44.7078 37.5606ZM42.0782 33.0946C41.7622 33.0946 41.4939 32.8522 41.4674 32.5318C41.4374 32.1706 41.2119 28.9656 42.5004 27.6489C42.9074 27.2328 43.4306 27.0315 44.0173 27.0675C44.3556 27.0883 44.6132 27.3793 44.5924 27.7176C44.5717 28.0559 44.28 28.3127 43.9424 28.2927C43.71 28.2783 43.5369 28.3447 43.378 28.507C42.7 29.1991 42.5965 31.281 42.6906 32.4306C42.7183 32.7683 42.467 33.0647 42.1293 33.0925C42.1122 33.0939 42.0951 33.0946 42.0782 33.0946Z" fill="#FF8D29"/>
<path d="M44.6936 37.6556C44.307 35.7777 43.1715 34.98 43.1715 34.98L42.0115 36.7535C42.0237 36.0723 41.2751 34.6854 41.2751 34.6854C40.2316 35.0475 38.8137 36.3423 38.8137 36.3423C39.1023 34.6854 39.7835 33.7588 40.5261 33.2433C42.079 32.1632 44.3008 33.0284 44.7856 34.851C45.0619 35.9127 44.8716 36.9989 44.6936 37.6556Z" fill="#FF8D29"/>
<path d="M43.9954 37.0329C43.6088 35.155 42.4735 34.3573 42.4735 34.3573L41.3137 36.1308C41.3259 35.4496 40.5774 34.0627 40.5774 34.0627C39.534 34.4248 38.1165 35.7196 38.1165 35.7196C38.405 34.0627 39.0861 33.1361 39.8286 32.6206C41.3812 31.5405 43.6027 32.4057 44.0874 34.2284C44.3636 35.2901 44.1734 36.3762 43.9954 37.0329Z" fill="#89CF6E"/>
<path d="M43.9971 37.033V37.0391C43.8867 37.4258 43.7886 37.659 43.7886 37.659C38.6642 50.8236 28.2805 46.2697 28.2805 46.2697C37.1238 44.9992 38.1179 35.7196 38.1179 35.7196C38.1179 35.7196 39.5356 34.4246 40.5789 34.0625C40.5789 34.0625 41.3275 35.4495 41.3153 36.1308L42.4752 34.3571C42.4752 34.3571 43.6106 35.1549 43.9971 37.033Z" fill="#FF6B6E"/>
<path d="M43.9971 37.0326V37.0387C43.8867 37.4254 43.7886 37.6586 43.7886 37.6586C38.6642 50.8227 28.2805 46.269 28.2805 46.269C29.3053 46.1217 30.2259 45.8639 31.0544 45.5264C34.3929 45.1827 38.5722 43.182 41.2908 36.2102C41.2908 36.2102 41.3031 36.1795 41.3275 36.1182C41.3275 36.112 41.3275 36.112 41.3338 36.1059L42.4752 34.3568C42.4752 34.3568 43.6106 35.1546 43.9971 37.0326Z" fill="#DB4A4D"/>
<path d="M41.708 32.6095C41.392 32.6095 41.1237 32.3672 41.0972 32.0467C41.0672 31.6856 40.8417 28.4807 42.1302 27.1641C42.5372 26.748 43.0604 26.5467 43.6471 26.5827C43.9854 26.6035 44.2429 26.8944 44.2221 27.2328C44.2014 27.5711 43.9097 27.8279 43.5722 27.8079C43.3398 27.7934 43.1667 27.8598 43.0078 28.0221C42.3298 28.7142 42.2263 30.796 42.3204 31.9456C42.3481 32.2833 42.0968 32.5796 41.7591 32.6074C41.742 32.6088 41.725 32.6095 41.708 32.6095Z" fill="#89CF6E"/>
<path d="M26.8498 39.736C26.3414 39.736 25.9292 39.3239 25.9292 38.8155V29.7217C25.9292 29.2133 26.3414 28.8011 26.8498 28.8011C27.3581 28.8011 27.7703 29.2133 27.7703 29.7217V38.8155C27.7703 39.3238 27.3581 39.736 26.8498 39.736Z" fill="#FFE8C4"/>
<path d="M57.4778 19.8493V23.3599H53.3679V19.8616L55.4291 17.824L57.4778 19.8493Z" fill="#DB4A4D"/>
<path d="M62.8169 77.152C67.1033 77.152 70.6288 76.0521 71.0528 74.6426L71.1211 74.6519C74.4556 67.1833 69.6463 61.5786 69.6463 61.5786H55.9951V77.1154L62.8169 77.152Z" fill="#FFAD31"/>
<path d="M71.1208 74.6537L71.0533 74.6414C70.6297 76.0529 67.1008 77.1514 62.8169 77.1514L60.1104 77.1392C64.0076 77.0041 67.113 75.9608 67.5059 74.6414L67.5733 74.6537C70.9122 67.1848 66.1004 61.5815 66.1004 61.5815H69.6479C69.6479 61.5815 74.4535 67.1848 71.1208 74.6537Z" fill="#FF8D29"/>
<path d="M55.47 60.4092L55.4435 60.5183C55.2332 61.3849 55.6322 62.289 56.4274 62.7086C57.766 63.4149 60.1099 63.8831 62.7777 63.8831C65.4036 63.8831 67.737 63.47 69.0641 62.7418C70.351 62.0356 69.9879 60.7876 69.6952 59.8862L55.47 60.4092Z" fill="#FF6B6E"/>
<path d="M55.7702 37.9741C50.2239 49.6412 55.7702 59.6935 55.7702 59.6935C55.7702 59.6935 56.7441 61.9164 62.8169 61.9164C66.4744 61.9164 69.4713 60.9614 69.7396 59.7497L69.7303 59.6935C69.7303 59.6935 75.2766 49.6412 69.7303 37.9741H55.7702Z" fill="#FFAD31"/>
<path d="M69.0658 62.7419C67.7341 63.4724 65.4022 63.8837 62.7756 63.8837C62.1988 63.8837 61.6403 63.8591 61.1003 63.8162C62.9719 63.675 64.5798 63.3005 65.5923 62.7419C66.8258 62.0667 66.5435 60.9003 66.2613 60.0102L69.6917 59.8875C69.9863 60.7898 70.3482 62.036 69.0658 62.7419Z" fill="#DB4A4D"/>
<path d="M55.7702 37.9741C50.2239 49.6412 55.7702 59.6935 55.7702 59.6935C55.7702 59.6935 56.7441 61.9164 62.8169 61.9164C66.4744 61.9164 69.4713 60.9614 69.7396 59.7497L69.7303 59.6935C69.7303 59.6935 75.2766 49.6412 69.7303 37.9741H55.7702Z" fill="#FFAD31"/>
<path d="M69.7289 59.6901L69.7411 59.7515C69.4711 60.9605 66.4766 61.9179 62.8193 61.9179C62.1566 61.9179 61.5492 61.8933 61.0029 61.8381C63.838 61.5988 65.9673 60.7641 66.1942 59.7515C66.1942 59.7515 71.7292 49.6375 66.182 37.9708H69.7289C75.276 49.6375 69.7289 59.6901 69.7289 59.6901Z" fill="#FF8D29"/>
<path d="M55.47 36.1764L55.4435 36.2855C55.2332 37.152 55.6322 38.056 56.4274 38.4755C57.7659 39.1817 60.1098 39.6499 62.7776 39.6499C65.4034 39.6499 67.7154 39.1964 69.0639 38.5087C69.9147 38.0748 70.3015 37.0776 70.0088 36.1764H55.47V36.1764Z" fill="#FF8D29"/>
<path d="M54.6207 35.1958C52.1976 29.7687 54.5391 26.0115 54.5391 26.0115H71.112C71.112 26.0115 73.3921 29.7073 70.9691 35.1344C70.5451 36.5439 67.1046 37.5917 62.818 37.5917C58.5315 37.5917 55.0059 36.4918 54.5819 35.0823L54.6207 35.1958Z" fill="#FFAD31"/>
<path d="M62.8173 28.8071C67.3894 28.8071 71.0958 27.5557 71.0958 26.0119C71.0958 24.4681 67.3894 23.2167 62.8173 23.2167C58.2452 23.2167 54.5388 24.4681 54.5388 26.0119C54.5388 27.5557 58.2452 28.8071 62.8173 28.8071Z" fill="#FFE8C4"/>
<path d="M55.47 36.1764L55.4435 36.2855C55.2332 37.152 55.6322 38.056 56.4274 38.4755C57.7659 39.1817 60.1098 39.6499 62.7776 39.6499C65.4034 39.6499 67.7154 39.1964 69.0639 38.5087C69.9147 38.0748 70.3015 37.0776 70.0088 36.1764H55.47V36.1764Z" fill="#FF6B6E"/>
<path d="M69.0657 38.5112C67.7154 39.1985 65.4019 39.6526 62.7753 39.6526C62.18 39.6526 61.6031 39.628 61.0508 39.5851C62.941 39.4317 64.5488 39.0389 65.5921 38.5112C66.4452 38.0755 66.8318 37.0754 66.5372 36.1794H70.0108C70.2992 37.0754 69.9125 38.0755 69.0657 38.5112Z" fill="#DB4A4D"/>
<path d="M54.6207 35.1958C52.1976 29.7687 54.5391 26.0115 54.5391 26.0115H71.112C71.112 26.0115 73.3921 29.7073 70.9691 35.1344C70.5451 36.5439 67.1046 37.5917 62.818 37.5917C58.5315 37.5917 55.0059 36.4918 54.5819 35.0823L54.6207 35.1958Z" fill="#FFAD31"/>
<path d="M56.0229 34.4203C55.6144 34.4203 55.2414 34.1463 55.1331 33.7326C54.8104 32.4989 54.6793 31.2611 54.7437 30.0537C54.7707 29.546 55.2033 29.1586 55.7118 29.1834C56.2195 29.2105 56.609 29.644 56.5818 30.1517C56.5276 31.169 56.6394 32.217 56.914 33.2665C57.0426 33.7584 56.7483 34.2614 56.2565 34.3901C56.1784 34.4106 56.1001 34.4203 56.0229 34.4203ZM56.108 45.8854C55.7234 45.7477 55.4645 45.364 55.5019 44.938C55.6139 43.6677 55.9076 42.4582 56.3751 41.3431C56.5715 40.8742 57.1094 40.6554 57.5798 40.85C58.0486 41.0467 58.2693 41.5862 58.0727 42.0549C57.6788 42.9945 57.4308 44.0188 57.3357 45.0995C57.2911 45.606 56.8445 45.9804 56.3381 45.9358C56.2577 45.9287 56.1806 45.9114 56.108 45.8854Z" fill="#FFE8C4"/>
<path d="M70.9688 35.136C70.5453 36.5414 67.1022 37.5909 62.8183 37.5909C62.2108 37.5909 61.6215 37.5663 61.0508 37.5234C64.4755 37.284 67.0593 36.3389 67.4213 35.136C69.8457 29.7047 67.5625 26.0101 67.5625 26.0101H71.1101C71.1101 26.0101 73.393 29.7047 70.9688 35.136Z" fill="#FF8D29"/>
<path d="M62.8173 28.8071C67.3894 28.8071 71.0958 27.5557 71.0958 26.0119C71.0958 24.4681 67.3894 23.2167 62.8173 23.2167C58.2452 23.2167 54.5388 24.4681 54.5388 26.0119C54.5388 27.5557 58.2452 28.8071 62.8173 28.8071Z" fill="#E4E5E6"/>
<path d="M71.0969 26.0102C71.0969 27.5569 67.39 28.809 62.8177 28.809C62.2103 28.809 61.6149 28.7844 61.0442 28.7476C64.7633 28.4714 67.5496 27.3482 67.5496 26.0102C67.5496 24.6722 64.7633 23.5551 61.0442 23.279C61.6149 23.2421 62.2103 23.2175 62.8177 23.2175C67.39 23.2175 71.0969 24.4696 71.0969 26.0102Z" fill="#D4D4D4"/>
<path d="M48.3775 63.3501C48.363 63.3501 48.3485 63.3497 48.3338 63.3486C47.6007 63.2969 46.8999 63.2171 46.2511 63.1115C45.9165 63.0571 45.6895 62.7414 45.7439 62.4066C45.7983 62.0717 46.1135 61.8454 46.4483 61.899C47.0605 61.9987 47.7239 62.0741 48.4201 62.1232C48.7581 62.147 49.013 62.4406 48.9892 62.7791C48.9664 63.1027 48.6968 63.3501 48.3775 63.3501ZM50.3497 63.4182C50.0108 63.4182 49.736 63.1432 49.736 62.804C49.736 62.4648 50.0108 62.1898 50.3497 62.1898C52.639 62.1898 54.7575 61.9204 56.1617 61.4508C56.4826 61.3433 56.8309 61.5169 56.9383 61.8387C57.0457 62.1604 56.8722 62.5084 56.5506 62.6159C55.0261 63.1258 52.7659 63.4182 50.3497 63.4182Z" fill="#333333"/>
<path d="M55.4543 54.8331C57.2273 57.6383 58.4101 60.7681 58.9319 64.0356L61.3655 79.2759V79.5416C61.3655 81.1556 56.4333 82.4641 50.3492 82.4641C44.2651 82.4641 39.333 81.1556 39.333 79.5416V79.2759L41.7666 64.0356C42.2884 60.7681 43.4711 57.6383 45.2441 54.8331H55.4543Z" fill="#E4E5E6"/>
<path d="M61.3688 79.2744V79.5444C61.3688 81.1585 56.4345 82.4658 50.3527 82.4658C49.7697 82.4658 49.1988 82.4535 48.6343 82.4351C53.906 82.2141 57.9381 81.0051 57.9381 79.5444V79.2744L55.5017 64.0354C54.98 60.7702 53.7955 57.6403 52.022 54.8293H55.4525C57.2263 57.6403 58.4107 60.7702 58.9324 64.0354L61.3688 79.2744Z" fill="#D4D4D4"/>
<path d="M46.0508 79.8074C46.7928 79.8074 47.3943 79.2127 47.3943 78.479C47.3943 77.7454 46.7928 77.1506 46.0508 77.1506C45.3088 77.1506 44.7073 77.7454 44.7073 78.479C44.7073 79.2127 45.3088 79.8074 46.0508 79.8074Z" fill="white"/>
<path d="M55.9945 48.5646V54.3615C55.9945 55.1886 53.4672 55.8591 50.3496 55.8591C47.2321 55.8591 44.7048 55.1886 44.7048 54.3615V48.5646H55.9945Z" fill="white"/>
<path d="M54.6487 79.8074C55.3909 79.8074 55.9927 79.2127 55.9927 78.479C55.9927 77.7454 55.3909 77.1506 54.6487 77.1506C53.9064 77.1506 53.3047 77.7454 53.3047 78.479C53.3047 79.2127 53.9064 79.8074 54.6487 79.8074Z" fill="white"/>
<path d="M50.3494 76.619C51.0914 76.619 51.6929 76.0242 51.6929 75.2906C51.6929 74.5569 51.0914 73.9622 50.3494 73.9622C49.6074 73.9622 49.0059 74.5569 49.0059 75.2906C49.0059 76.0242 49.6074 76.619 50.3494 76.619Z" fill="white"/>
<path d="M44.439 75.026C45.181 75.026 45.7825 74.431 45.7825 73.6971C45.7825 72.9631 45.181 72.3682 44.439 72.3682C43.697 72.3682 43.0955 72.9631 43.0955 73.6971C43.0955 74.431 43.697 75.026 44.439 75.026Z" fill="white"/>
<path d="M55.9946 48.5646V54.358C55.9946 55.1866 53.4718 55.8555 50.3539 55.8555C49.7585 55.8555 49.1814 55.8309 48.6414 55.7819C50.9185 55.5916 52.5634 55.027 52.5634 54.358V48.5646H55.9946V48.5646Z" fill="#E4E5E6"/>
<path d="M56.2595 75.026C57.0018 75.026 57.6035 74.431 57.6035 73.6971C57.6035 72.9631 57.0018 72.3682 56.2595 72.3682C55.5173 72.3682 54.9155 72.9631 54.9155 73.6971C54.9155 74.431 55.5173 75.026 56.2595 75.026Z" fill="white"/>
<path d="M50.3497 50.0619C53.4672 50.0619 55.9945 49.3915 55.9945 48.5645C55.9945 47.7374 53.4672 47.067 50.3497 47.067C47.2321 47.067 44.7048 47.7374 44.7048 48.5645C44.7048 49.3915 47.2321 50.0619 50.3497 50.0619Z" fill="white"/>
<path d="M55.9947 48.5649C55.9947 49.3937 53.4719 50.0628 50.3539 50.0628C49.8628 50.0628 49.3902 50.0444 48.9421 50.0138C51.3789 49.848 53.1773 49.2647 53.1773 48.5649C53.1773 47.8651 51.3789 47.2818 48.9421 47.116C49.3902 47.0854 49.8628 47.067 50.3539 47.067C53.4719 47.067 55.9947 47.7361 55.9947 48.5649Z" fill="#E4E5E6"/>
</svg>
