<svg width="96" height="96" viewBox="0 0 96 96" fill="none" xmlns="http://www.w3.org/2000/svg">
<path d="M43.4214 42.1628L43.4089 42.2065L34.6959 70.4358H29.288C28.9125 70.3983 28.5494 70.3607 28.1989 70.3107C25.1631 69.9288 23.1288 69.1652 23.1288 68.1574L20.863 47.5394L19.0542 42.1628H43.4214V42.1628Z" fill="#E4E5E6"/>
<path d="M43.3525 42.3945L41.9692 46.87L34.6959 70.436H29.288C28.9125 70.3984 28.5494 70.3608 28.1989 70.3108C25.1631 69.9289 23.1288 69.1653 23.1288 68.1575L20.863 47.5396L20.2996 45.8621L19.461 43.371L19.0542 42.163H42.7516L43.3525 42.3945Z" fill="#E4E5E6"/>
<path d="M44.3664 40.3039L43.4087 42.2067L34.6958 70.436H29.2878C28.9124 70.3984 28.5493 70.3609 28.1987 70.3109L38.6142 45.0047L39.7783 42.163L41.049 39.0835C41.2805 39.1397 41.4996 39.2024 41.7125 39.2649L44.3664 40.3039Z" fill="#D4D4D4"/>
<path d="M42.3225 39.5025C43.4234 39.8977 43.9345 41.1619 43.4087 42.2067C42.7416 43.5289 41.4984 44.4664 40.0438 44.7441L39.0398 44.9358C38.9021 44.9609 38.7581 44.9796 38.6142 45.0047C36.7113 45.2989 34.5331 45.4742 32.2046 45.4742C29.776 45.4742 26.4086 45.0986 26.4086 45.0986C25.1629 44.9295 24.0301 44.7043 23.0474 44.435C20.8692 43.853 19.417 43.0518 19.104 42.163C19.0601 42.0441 19.0415 41.9188 19.0415 41.7999C19.0415 39.7719 24.9314 38.1321 32.2046 38.1321C35.6097 38.1321 38.7356 38.4107 41.049 39.0835C41.4611 39.2034 41.9016 39.3514 42.3225 39.5025Z" fill="white"/>
<path d="M43.6091 41.4057C43.6027 41.6748 43.5402 41.9501 43.4088 42.2067C43.0708 42.864 42.5951 43.4335 42.0192 43.8655C41.4433 44.3036 40.7674 44.6041 40.0412 44.7417L39.0398 44.9358C38.9021 44.9609 38.7582 44.9797 38.6142 45.0047C36.7114 45.2989 34.5332 45.4742 32.2046 45.4742C31.9042 45.4742 31.585 45.4678 31.2657 45.4554C33.1123 45.4053 34.8462 45.2425 36.3922 45.0047C36.5361 44.9797 36.6801 44.9609 36.8177 44.9358L37.8193 44.7417C38.5516 44.6041 39.1523 44.1939 39.7972 43.8655C39.8116 43.8581 39.826 43.8507 39.8402 43.843C41.3256 43.0484 40.8026 40.7857 39.1275 40.6072C37.6706 40.452 36.0909 40.3665 34.4392 40.3665C27.3913 40.3665 21.6328 41.9125 21.2947 43.853C19.8676 43.2709 19.0415 42.5573 19.0415 41.7999C19.0415 39.8595 24.4181 38.276 31.2471 38.1446C31.56 38.1382 31.8791 38.1321 32.2046 38.1321C32.4613 38.1321 32.7179 38.1321 32.9745 38.1382C33.1811 38.1382 33.3814 38.1446 33.5879 38.1507C36.4484 38.2134 39.0523 38.5075 41.049 39.0835C41.0678 39.0896 41.0866 39.0959 41.1054 39.1021C41.3119 39.1523 41.5184 39.2085 41.7125 39.2649L42.3196 39.5028C43.1458 39.797 43.6465 40.5919 43.6091 41.4057Z" fill="#D4D4D4"/>
<path d="M24.2019 54.9404C23.7202 54.9404 23.3102 54.572 23.2675 54.083L22.9118 49.9997C22.8669 49.4832 23.2491 49.028 23.7657 48.9829C24.2824 48.9375 24.7375 49.3201 24.7825 49.8368L25.1383 53.9201C25.1832 54.4366 24.801 54.8919 24.2844 54.9369C24.2567 54.9394 24.2292 54.9404 24.2019 54.9404Z" fill="white"/>
<path d="M75.2996 38.2322C75.2996 39.8345 70.7679 41.1365 65.1785 41.1365C59.6014 41.1365 55.076 39.8409 55.0635 38.2385V38.2322C55.0635 38.0946 55.0948 37.9692 55.1575 37.8378C55.1637 37.8378 55.1637 37.8317 55.1637 37.8317C57.054 29.92 59.8205 26.5024 59.8205 26.5024H70.5613C70.5613 26.5024 73.3405 29.9388 75.2369 37.9068C75.2369 37.913 75.2432 37.913 75.2432 37.9193C75.2557 37.9882 75.2745 38.0632 75.2933 38.1383C75.2933 38.1447 75.2933 38.1447 75.2933 38.1508C75.2996 38.1758 75.2996 38.2072 75.2996 38.2322Z" fill="#E4E5E6"/>
<path d="M76.9586 54.0305C76.9586 58.4933 76.6331 63.5571 75.8195 69.2719C75.8195 70.8678 71.3816 71.6691 65.717 71.6691C65.2663 71.6691 64.8345 71.6691 64.4214 71.6628C64.2649 71.6565 64.1145 71.6565 63.9645 71.6503C63.8329 71.6503 63.714 71.6503 63.5889 71.644C58.4938 71.5251 56.0653 70.9867 54.9198 70.5363C54.3126 70.2983 53.9121 69.71 53.9121 69.059V45.9316C53.9121 45.3184 53.9457 44.703 54.0243 44.0948C54.3047 41.9247 54.6625 39.9754 55.0637 38.2385C55.0762 39.8409 59.6017 41.1364 65.1787 41.1364C67.7888 41.1364 70.1736 40.8548 71.9699 40.3791C74.0167 39.8534 75.2999 39.0835 75.2999 38.2322C75.2999 38.2071 75.2999 38.1758 75.2936 38.1508C75.4188 38.6766 75.5377 39.2211 75.6505 39.7845C75.7006 40.0411 75.7506 40.3039 75.8007 40.5732C75.9071 41.1427 76.0071 41.7248 76.1011 42.3258C76.1387 42.5698 76.1761 42.8201 76.2137 43.0769C76.2451 43.2896 76.2764 43.5087 76.3014 43.7279C76.3577 44.1221 76.4078 44.5228 76.4579 44.9296C76.6832 46.8951 76.8459 49.0294 76.9148 51.3453C76.9274 51.6332 76.9335 51.9274 76.9399 52.2154V52.228C76.946 52.522 76.9524 52.8163 76.9524 53.1168C76.9586 53.4171 76.9586 53.7238 76.9586 54.0305Z" fill="#89CF6E"/>
<path d="M76.8142 59.3071C76.6452 62.3804 76.3261 65.6978 75.8191 69.272C75.8191 70.8679 71.3812 71.6692 65.7165 71.6692C59.1443 71.6692 56.215 71.0432 54.9193 70.5364C54.3122 70.2984 53.9116 69.7101 53.9116 69.0591V61.7734L62.0174 62.3743C63.0126 62.4556 64.0704 62.4932 65.1595 62.4932C71.5064 62.4932 76.7392 61.066 76.8142 59.3071Z" fill="#E4E5E6"/>
<path d="M76.9586 54.0305C76.9586 58.4933 76.6331 63.5571 75.8195 69.2719C75.8195 70.8678 71.3816 71.6691 65.717 71.6691C64.9596 71.6691 64.2524 71.6628 63.5889 71.644C68.4398 71.5 72.0263 70.7051 72.0263 69.2719C72.8338 63.5634 73.1656 58.5058 73.1656 54.0493C73.1656 34.414 66.7622 26.5023 66.7622 26.5023H70.5616C70.5616 26.5023 76.9586 34.4077 76.9586 54.0305Z" fill="#D4D4D4"/>
<path d="M76.9583 54.0304C76.9583 55.7016 76.9146 57.4604 76.8144 59.3069C76.7768 60.2521 75.2495 61.0971 72.8586 61.6854C73.0713 58.9626 73.1653 56.4213 73.1653 54.0492C73.1653 48.6223 72.6771 44.0907 71.9697 40.3789C74.0165 39.8532 75.2997 39.0833 75.2997 38.232C75.2997 38.207 75.2997 38.1756 75.2934 38.1506C75.4186 38.6764 75.5374 39.2209 75.6502 39.7843C75.7004 40.0409 75.7503 40.3037 75.8005 40.573C75.9068 41.1425 76.0069 41.7246 76.1009 42.3256C76.1385 42.5696 76.1759 42.82 76.2135 43.0767C76.2448 43.2894 76.2762 43.5085 76.3012 43.7277C76.3574 44.1219 76.4076 44.5226 76.4577 44.9294C76.6829 46.8949 76.8457 49.0292 76.9146 51.3451C76.9271 51.6331 76.9333 51.9272 76.9397 52.2153V52.2278C76.9458 52.5218 76.9522 52.8223 76.9522 53.1166C76.9583 53.417 76.9583 53.7237 76.9583 54.0304ZM59.9741 24.1892V26.7269C59.9741 27.5494 62.3652 28.2163 65.3147 28.2163C68.2642 28.2163 70.6552 27.5494 70.6552 26.7269V24.1892H59.9741Z" fill="#6DBF4D"/>
<path d="M65.3148 20.0129C69.1491 20.0129 72.2575 19.1854 72.2575 18.1647C72.2575 17.144 69.1491 16.3165 65.3148 16.3165C61.4804 16.3165 58.3721 17.144 58.3721 18.1647C58.3721 19.1854 61.4804 20.0129 65.3148 20.0129Z" fill="#89CF6E"/>
<path d="M58.3721 18.4288V23.2678C58.3721 24.3372 61.4804 25.2041 65.3148 25.2041C69.1491 25.2041 72.2575 24.3372 72.2575 23.2678V18.4288H58.3721Z" fill="#89CF6E"/>
<path d="M72.2578 18.165C72.2578 19.1853 69.1468 20.0114 65.3162 20.0114C64.7653 20.0114 64.2271 19.9928 63.7075 19.9613C66.7684 19.7674 69.0404 19.0349 69.0404 18.1649C69.0404 17.295 66.7684 16.5625 63.7075 16.3686C64.2271 16.3373 64.7653 16.3185 65.3162 16.3185C69.1468 16.3185 72.2578 17.1446 72.2578 18.165Z" fill="#6DBF4D"/>
<path d="M72.2577 18.4279V23.2663C72.2577 24.3366 69.1467 25.2065 65.3161 25.2065C64.7653 25.2065 64.227 25.1877 63.7075 25.1502C66.7683 24.95 69.0404 24.1801 69.0404 23.2663V18.4279H72.2577V18.4279ZM69.4498 53.5416C69.4498 55.3356 67.979 56.7899 66.1646 56.7899C64.3502 56.7899 62.8794 55.3356 62.8794 53.5416C62.8794 50.4655 66.1646 47.778 66.1646 47.778C66.1646 47.778 69.4498 50.5184 69.4498 53.5416Z" fill="#6DBF4D"/>
<path d="M68.4715 52.5633C68.4715 54.3573 67.0007 55.8116 65.1863 55.8116C63.3719 55.8116 61.9011 54.3573 61.9011 52.5633C61.9011 49.4871 65.1863 46.7997 65.1863 46.7997C65.1863 46.7997 68.4715 49.5401 68.4715 52.5633ZM56.5448 48.4454C56.0691 48.3694 55.7223 47.941 55.7573 47.4514L56.0497 43.363C56.0868 42.8459 56.536 42.4566 57.0533 42.4935C57.5707 42.5301 57.9597 42.9798 57.9228 43.4971L57.6303 47.5854C57.5933 48.1026 57.1441 48.4918 56.6268 48.4549C56.5991 48.4529 56.5718 48.4497 56.5448 48.4454Z" fill="white"/>
<path d="M55.1575 37.8375C55.1261 37.9689 55.0948 38.0942 55.0635 38.2319C55.0635 38.0943 55.0948 37.9689 55.1575 37.8375Z" fill="white"/>
<path d="M30.3797 71.5933L28.9663 74.4271C34.04 77.7289 40.3317 79.6834 47.1463 79.6834C53.6294 79.6834 59.6393 77.9144 64.5774 74.8992L63.0835 71.8504L30.3797 71.5933Z" fill="#FF8D29"/>
<path d="M51.5661 42.3522L47.1111 30.9404L34.5997 61.3547L34.5961 61.4575C35.2514 61.8859 35.6836 62.621 35.6836 63.456C35.6836 64.7782 34.5995 65.8501 33.2622 65.8501C33.0951 65.8501 32.9318 65.8334 32.7742 65.8015L32.7519 65.8467L30.3027 71.8004C34.9936 74.7469 40.8106 76.491 47.1111 76.491C53.105 76.491 58.6615 74.9124 63.227 72.2217L59.6012 62.9341L59.5399 62.9391C59.1537 63.1006 58.729 63.1899 58.2832 63.1899C56.5002 63.1899 55.0547 61.7607 55.0547 59.9977C55.0547 58.5938 55.9713 57.4015 57.2451 56.9741L57.2549 56.9241L53.3333 46.8788L53.2842 46.9207C52.933 47.1168 52.5273 47.2287 52.0952 47.2287C50.7579 47.2287 49.6738 46.1568 49.6738 44.8345C49.6738 43.6954 50.4784 42.7421 51.5563 42.4998L51.5661 42.3522Z" fill="#FFAD31"/>
<path d="M63.2254 72.2198C61.7983 73.0647 60.2711 73.7971 58.6687 74.4043L45.2363 35.4967L47.1141 30.9399L51.5645 42.3505L51.5583 42.5009C50.4817 42.745 49.6742 43.6964 49.6742 44.8356C49.6742 46.1562 50.7571 47.2265 52.0965 47.2265C52.5285 47.2265 52.9353 47.1139 53.2858 46.9198L53.3358 46.8759L57.2541 56.9222L57.2478 56.9722C55.9711 57.4041 55.0571 58.5934 55.0571 59.9955C55.0571 61.7606 56.503 63.1876 58.2807 63.1876C58.7314 63.1876 59.1507 63.1 59.5388 62.9373L59.6013 62.931L63.2254 72.2198Z" fill="#FF8D29"/>
<path d="M38.4745 58.4515C38.3554 58.4515 38.2344 58.4287 38.1176 58.3806C37.6381 58.1833 37.4092 57.6347 37.6065 57.1551L39.4806 52.5993C39.6777 52.1196 40.2271 51.8901 40.706 52.0881C41.1855 52.2854 41.4144 52.834 41.2172 53.3136L39.3431 57.8694C39.1939 58.2322 38.8436 58.4515 38.4745 58.4515Z" fill="#FFE8C4"/>
<path d="M45.0206 49.056C45.9055 49.056 46.6228 48.3468 46.6228 47.4719C46.6228 46.597 45.9055 45.8877 45.0206 45.8877C44.1358 45.8877 43.4185 46.597 43.4185 47.4719C43.4185 48.3468 44.1358 49.056 45.0206 49.056Z" fill="white"/>
<path d="M47.9581 56.4487C48.9904 56.4487 49.8273 55.6212 49.8273 54.6005C49.8273 53.5798 48.9904 52.7523 47.9581 52.7523C46.9257 52.7523 46.0889 53.5798 46.0889 54.6005C46.0889 55.6212 46.9257 56.4487 47.9581 56.4487Z" fill="white"/>
<path d="M43.6855 64.3697C45.0127 64.3697 46.0887 63.3058 46.0887 61.9934C46.0887 60.6811 45.0127 59.6172 43.6855 59.6172C42.3582 59.6172 41.2822 60.6811 41.2822 61.9934C41.2822 63.3058 42.3582 64.3697 43.6855 64.3697Z" fill="white"/>
<path d="M51.6963 71.2345C52.7286 71.2345 53.5654 70.407 53.5654 69.3863C53.5654 68.3655 52.7286 67.5381 51.6963 67.5381C50.664 67.5381 49.8271 68.3655 49.8271 69.3863C49.8271 70.407 50.664 71.2345 51.6963 71.2345Z" fill="white"/>
</svg>
