<svg width="96" height="96" viewBox="0 0 96 96" fill="none" xmlns="http://www.w3.org/2000/svg">
<path d="M40.4238 30.9891C39.8361 33.1386 39.3824 35.2335 39.0376 37.2509C39.0376 37.2509 37.7009 50.2142 38.0344 58.5675C38.1183 60.6703 39.4583 62.521 41.4295 63.2582C44.3304 64.3432 49.3605 65.6098 57.0344 65.6098C66.8329 65.6098 74.7763 63.2887 74.7763 60.4255C74.7763 60.4255 78.0636 47.0756 73.4636 30.6277L40.4238 30.9891Z" fill="#E4E5E6"/>
<path d="M74.771 60.4272C74.771 63.2868 66.8272 65.6098 57.0317 65.6098C55.9031 65.6098 54.8347 65.5824 53.8213 65.533C62.165 65.1112 68.5091 62.9856 68.5091 60.4272C68.5091 60.4272 71.7907 47.1148 67.2161 30.6907L73.4615 30.625C78.058 47.0765 74.771 60.4272 74.771 60.4272Z" fill="#D4D4D4"/>
<path d="M44.3282 21.4337C42.6295 22.1362 41.0902 23.4254 39.9135 25.4728C39.2379 26.6483 38.7788 28.2322 38.7788 28.2322C38.5736 28.7762 38.6346 29.3946 38.9817 29.8629L38.6606 29.0648C38.6606 31.5662 46.7274 33.5941 56.6782 33.5941C66.6291 33.5941 74.6958 31.5663 74.6958 29.0648L74.3701 29.8629C74.7172 29.3946 74.7782 28.7763 74.573 28.2322C74.573 28.2322 74.1139 26.6483 73.4383 25.4728C72.2616 23.4254 70.7223 22.1362 69.0237 21.4337H44.3282Z" fill="#E4E5E6"/>
<path d="M38.688 28.9541L38.9838 29.6992C38.8196 29.48 38.7209 29.2225 38.688 28.9541ZM68.4907 29.6992L68.7921 28.9706C68.7537 29.228 68.6551 29.48 68.4907 29.6992Z" fill="#D4D4D4"/>
<path d="M74.6986 29.0634C74.6986 31.5669 66.6342 33.5938 56.6797 33.5938C55.677 33.5938 54.6965 33.5719 53.7431 33.5281C62.2952 33.1829 68.8201 31.3149 68.8201 29.0634L68.7928 29.1292C68.8421 28.8333 68.8038 28.5212 68.6941 28.2307C68.6941 28.2307 68.234 26.6476 67.5602 25.4698C66.3822 23.4265 64.8428 22.1336 63.1444 21.4324H69.0284C70.7266 22.1336 72.2662 23.4265 73.4441 25.4698C74.118 26.6476 74.5781 28.2307 74.5781 28.2307C74.6876 28.5212 74.7205 28.8333 74.6713 29.1292L74.6986 29.0634ZM38.688 28.9538L38.9839 29.6989C38.8196 29.4797 38.7209 29.2223 38.688 28.9538Z" fill="#D4D4D4"/>
<path d="M68.7911 28.9711C68.7527 29.2284 68.6541 29.4802 68.4897 29.6992L68.7911 28.9711Z" fill="#D4D4D4"/>
<path d="M41.6312 40.6521C41.6 40.6521 41.5687 40.6502 41.5372 40.6468C41.0862 40.5953 40.7624 40.1881 40.8137 39.7372C41.0457 37.7002 41.4074 35.6801 41.8889 33.7328C41.9977 33.2922 42.4434 33.0231 42.8837 33.1324C43.3242 33.2412 43.593 33.6867 43.484 34.1273C43.0195 36.0063 42.6705 37.9562 42.4465 39.9232C42.3986 40.3426 42.0433 40.6521 41.6312 40.6521Z" fill="white"/>
<path d="M59.7071 41.0842C59.7071 41.0842 58.9907 39.4456 59.7675 36.9109C59.7675 36.9109 62.0201 39.1384 60.7773 42.0571L59.7071 41.0842ZM60.6219 42.4411C60.6219 42.4411 57.5926 43.0556 55.4954 41.289C55.4954 41.289 57.5926 40.4441 59.5345 40.9818L60.6219 42.4411ZM62.2531 43.9773C62.2531 43.9773 62.1409 42.0827 63.6944 40.1625C63.6944 40.1625 65.2047 42.7484 63.4182 45.3599L62.2531 43.9773ZM65.014 47.2955C65.014 47.2955 65.2023 45.0321 67.2157 43.1324C67.2157 43.1324 68.4733 46.3692 66.097 49.0011L65.014 47.2955Z" fill="#D4D4D4"/>
<path d="M64.6118 47.5002C64.6118 47.5002 62.4379 47.2141 60.1753 48.8162C60.1753 48.8162 63.0471 50.6883 66.1048 48.8699L64.6118 47.5002ZM67.0982 51.0941C67.0982 51.0941 64.4951 50.8442 61.936 52.6563C61.936 52.6563 65.3285 54.7 68.7869 52.6433L67.0982 51.0941Z" fill="#D4D4D4"/>
<path d="M67.4339 50.8198C67.4339 50.8198 67.7817 47.8743 70.1695 45.8465C70.1695 45.8465 71.3967 49.9762 68.555 52.8097L67.4339 50.8198ZM62.0663 44.1405C62.0663 44.1405 60.1399 43.7937 58.0521 45.1296C58.0521 45.1296 60.5338 46.9213 63.3406 45.4254L62.0663 44.1405ZM63.8087 39.4562C63.5062 39.4562 63.2609 39.2109 63.2609 38.9083C63.2609 38.8994 63.2598 37.9897 63.1844 36.8715C63.1641 36.5696 63.3922 36.3084 63.6941 36.2879C63.9989 36.2683 64.2573 36.4959 64.2776 36.7976C64.3556 37.955 64.3565 38.8699 64.3565 38.9083C64.3565 39.2109 64.1113 39.4562 63.8087 39.4562ZM57.0163 45.6783C56.8421 45.6783 56.4096 45.6499 55.4603 45.4623C55.1634 45.4037 54.9704 45.1155 55.0291 44.8187C55.0877 44.522 55.3756 44.3285 55.6727 44.3875C56.6929 44.5892 57.0077 44.5821 57.0228 44.5826C57.3185 44.5757 57.5756 44.8037 57.5916 45.1004C57.6077 45.3969 57.3908 45.6521 57.0946 45.6757C57.0784 45.6771 57.0532 45.6783 57.0163 45.6783ZM67.5058 42.4516C67.4467 42.4516 67.3865 42.442 67.3275 42.4217C67.0418 42.3233 66.8898 42.0123 66.9874 41.7264C66.9945 41.7051 67.2223 41.0072 67.2223 39.9837C67.2223 39.6811 67.4676 39.4358 67.7701 39.4358C68.0726 39.4358 68.3179 39.6811 68.3179 39.9837C68.3179 41.2132 68.0358 42.047 68.0238 42.0819C67.9457 42.309 67.7332 42.4516 67.5058 42.4516ZM58.6569 49.4668C58.376 49.4668 57.8084 49.4286 57.1601 49.1722C56.8787 49.0609 56.7409 48.7426 56.8521 48.4613C56.9633 48.1798 57.2815 48.0421 57.563 48.1533C58.2024 48.4062 58.7385 48.3689 58.7439 48.3689C59.0471 48.3428 59.3105 48.5671 59.336 48.8684C59.3616 49.1699 59.138 49.435 58.8365 49.4605C58.816 49.4623 58.7535 49.4668 58.6569 49.4668Z" fill="#D4D4D4"/>
<path d="M70.5405 56.0926C70.3619 56.0926 70.187 56.0057 70.0819 55.8452C66.4067 50.2422 62.2685 44.8306 57.7823 39.7605C57.5818 39.5339 57.6031 39.1877 57.8296 38.9872C58.0562 38.7867 58.4025 38.8081 58.603 39.0345C63.1239 44.1438 67.2942 49.5976 70.9981 55.2444C71.164 55.4973 71.0934 55.8369 70.8404 56.0028C70.7478 56.0636 70.6435 56.0926 70.5405 56.0926ZM60.6782 53.2446H58.8084C58.5059 53.2446 58.2606 52.9993 58.2606 52.6968C58.2606 52.3942 58.5059 52.1489 58.8084 52.1489H60.6782C60.9807 52.1489 61.226 52.3942 61.226 52.6968C61.226 52.9993 60.9807 53.2446 60.6782 53.2446ZM70.571 45.4229C70.5137 45.4229 70.4556 45.4138 70.3982 45.3949C70.1113 45.2996 69.9559 44.9897 70.0506 44.7027C70.0531 44.6953 70.2964 43.9496 70.2964 43.1837C70.2964 42.8812 70.5417 42.6359 70.8443 42.6359C71.1468 42.6359 71.3921 42.8812 71.3921 43.1837C71.3921 44.1321 71.1027 45.0115 71.0903 45.0484C71.0139 45.278 70.8002 45.4229 70.571 45.4229Z" fill="#D4D4D4"/>
<path d="M59.0508 41.0842C59.0508 41.0842 58.3345 39.4456 59.1112 36.9109C59.1112 36.9109 61.3638 39.1384 60.121 42.0571L59.0508 41.0842ZM59.9657 42.4411C59.9657 42.4411 56.9363 43.0556 54.8391 41.289C54.8391 41.289 56.9363 40.4441 58.8782 40.9818L59.9657 42.4411ZM61.5969 43.9773C61.5969 43.9773 61.4847 42.0827 63.0382 40.1625C63.0382 40.1625 64.5485 42.7484 62.762 45.3599L61.5969 43.9773ZM64.3577 47.2955C64.3577 47.2955 64.5461 45.0321 66.5594 43.1324C66.5594 43.1324 67.817 46.3692 65.4407 49.0011L64.3577 47.2955Z" fill="#FFAD31"/>
<path d="M63.9555 47.5002C63.9555 47.5002 61.7816 47.2141 59.519 48.8162C59.519 48.8162 62.3908 50.6883 65.4485 48.8699L63.9555 47.5002ZM66.442 51.0941C66.442 51.0941 63.8389 50.8442 61.2798 52.6563C61.2798 52.6563 64.6722 54.7 68.1307 52.6433L66.442 51.0941Z" fill="#FFAD31"/>
<path d="M66.778 50.8198C66.778 50.8198 67.1258 47.8743 69.5137 45.8465C69.5137 45.8465 70.7409 49.9762 67.8992 52.8097L66.778 50.8198ZM61.4102 44.1405C61.4102 44.1405 59.4838 43.7937 57.3959 45.1296C57.3959 45.1296 59.8778 46.9213 62.6846 45.4254L61.4102 44.1405ZM63.1527 39.4562C62.8502 39.4562 62.6049 39.2109 62.6049 38.9083C62.6049 38.8994 62.6038 37.9897 62.5284 36.8715C62.5081 36.5696 62.7362 36.3084 63.0381 36.2879C63.3429 36.2683 63.6013 36.4959 63.6217 36.7976C63.6996 37.955 63.7006 38.8699 63.7006 38.9083C63.7006 39.2109 63.4553 39.4562 63.1527 39.4562ZM56.36 45.6783C56.1859 45.6783 55.7534 45.6499 54.804 45.4623C54.5071 45.4037 54.3141 45.1155 54.3728 44.8187C54.4314 44.522 54.7194 44.3285 55.0164 44.3875C56.0367 44.5892 56.3515 44.5821 56.3666 44.5826C56.6624 44.5757 56.9194 44.8037 56.9355 45.1004C56.9515 45.3969 56.7346 45.6521 56.4385 45.6757C56.4222 45.6771 56.397 45.6783 56.36 45.6783ZM66.8499 42.4516C66.7908 42.4516 66.7306 42.442 66.6717 42.4217C66.386 42.3233 66.2339 42.0123 66.3315 41.7264C66.3386 41.7051 66.5664 41.0072 66.5664 39.9837C66.5664 39.6811 66.8117 39.4358 67.1142 39.4358C67.4167 39.4358 67.6621 39.6811 67.6621 39.9837C67.6621 41.2132 67.38 42.047 67.3679 42.0819C67.2899 42.309 67.0773 42.4516 66.8499 42.4516ZM58.0007 49.4668C57.7199 49.4668 57.1522 49.4286 56.504 49.1722C56.2226 49.0609 56.0846 48.7426 56.1959 48.4613C56.3071 48.1798 56.6253 48.0421 56.9068 48.1533C57.5463 48.4062 58.0823 48.3689 58.0878 48.3689C58.391 48.3428 58.6544 48.5671 58.6799 48.8684C58.7055 49.1699 58.4818 49.435 58.1804 49.4605C58.1599 49.4623 58.0973 49.4668 58.0007 49.4668Z" fill="#FFAD31"/>
<path d="M69.8831 56.0926C69.7045 56.0926 69.5296 56.0057 69.4244 55.8452C65.7494 50.2422 61.6114 44.8306 57.1253 39.7605C56.9248 39.5339 56.9461 39.1877 57.1726 38.9872C57.3992 38.7867 57.7455 38.8081 57.946 39.0345C62.4667 44.1438 66.6369 49.5976 70.3406 55.2444C70.5066 55.4973 70.436 55.8369 70.1829 56.0028C70.0904 56.0636 69.986 56.0926 69.8831 56.0926ZM60.0211 53.2446H58.1514C57.8489 53.2446 57.6036 52.9993 57.6036 52.6968C57.6036 52.3942 57.8489 52.1489 58.1514 52.1489H60.0211C60.3236 52.1489 60.5689 52.3942 60.5689 52.6968C60.5689 52.9993 60.3236 53.2446 60.0211 53.2446ZM69.9135 45.4229C69.8563 45.4229 69.7981 45.4138 69.7407 45.3949C69.4539 45.2996 69.2984 44.9897 69.3931 44.7027C69.3957 44.6953 69.6389 43.9496 69.6389 43.1837C69.6389 42.8812 69.8842 42.6359 70.1868 42.6359C70.4893 42.6359 70.7346 42.8812 70.7346 43.1837C70.7346 44.1321 70.4452 45.0115 70.4329 45.0484C70.3564 45.278 70.1428 45.4229 69.9135 45.4229Z" fill="#FFAD31"/>
<path d="M70.7704 23.0489C70.7704 23.8871 69.6199 24.6487 67.6971 25.2459C65.1386 26.051 61.2107 26.5661 56.8006 26.5661C52.248 26.5661 48.2051 26.0183 45.6521 25.1636C43.8773 24.5829 42.8308 23.8487 42.8308 23.0489C42.8308 21.1096 49.087 19.5374 56.8006 19.5374C64.5196 19.5373 70.7704 21.1095 70.7704 23.0489Z" fill="#E4E5E6"/>
<path d="M70.7704 23.0488C70.7704 23.1146 70.7649 23.1804 70.7484 23.2461C68.2065 22.3805 64.1252 21.8218 59.5178 21.8218C52.0674 21.8218 45.9754 23.29 45.57 25.1361C43.8444 24.561 42.8308 23.8378 42.8308 23.0488C42.8308 21.1094 49.087 19.5372 56.8006 19.5372C64.5196 19.5372 70.7704 21.1094 70.7704 23.0488Z" fill="#D4D4D4"/>
<path d="M67.6961 25.2454C65.1376 26.0505 61.2097 26.5656 56.7996 26.5656C52.2471 26.5656 48.2041 26.0178 45.6511 25.1631C45.7608 25.0591 45.8319 25.0042 45.8319 25.0042C48.3795 23.673 52.2361 22.8184 56.5476 22.8184C61.0014 22.8184 64.8802 23.8866 67.5043 25.1357C67.5754 25.1686 67.6358 25.207 67.6961 25.2454Z" fill="#FFAD31"/>
<path d="M67.6956 25.2452C65.1371 26.0505 61.2092 26.5656 56.7991 26.5656C55.0845 26.5656 53.4355 26.4888 51.918 26.3409C54.3759 26.2893 56.6479 26.0754 58.572 25.7428C59.4998 25.5825 59.6005 24.2905 58.7057 23.9975C57.3234 23.5449 55.6915 23.0757 54.3997 22.8896C55.1008 22.8403 55.8185 22.8184 56.5471 22.8184C61.001 22.8184 64.8797 23.8866 67.5038 25.1357C67.575 25.1686 67.6353 25.207 67.6956 25.2452Z" fill="#FF8D29"/>
<path d="M22.9949 73.0326C16.4508 57.3186 22.9949 42.0668 22.9949 42.0668H50.47C50.47 42.0668 57.0142 57.3186 50.47 73.0326H22.9949Z" fill="#FF6B6E"/>
<path d="M22.9681 52.3666C22.9291 52.3666 22.8896 52.3638 22.8499 52.358C22.4007 52.2933 22.089 51.8766 22.1538 51.4275C22.446 49.3989 22.8674 47.3904 23.4064 45.4576C23.5283 45.0205 23.9807 44.7645 24.4186 44.8867C24.8558 45.0086 25.1114 45.4619 24.9894 45.899C24.4694 47.7641 24.0626 49.703 23.7804 51.6618C23.7214 52.0713 23.37 52.3666 22.9681 52.3666Z" fill="#FFE8C4"/>
<path d="M50.471 73.033H45.9026C52.4486 57.3211 45.9026 42.0693 45.9026 42.0693H50.471C50.471 42.0693 57.0116 57.3211 50.471 73.033Z" fill="#DB4A4D"/>
<path d="M50.5596 38.6913H22.9814V42.0669H50.5596V38.6913Z" fill="#FFAD31"/>
<path d="M50.5647 38.6893H45.9026V42.0694H50.5647V38.6893Z" fill="#FF8D29"/>
<path d="M50.5596 73.0325H22.9814V76.462H50.5596V73.0325Z" fill="#FFAD31"/>
<path d="M50.5647 73.033H45.9026V76.4624H50.5647V73.033Z" fill="#FF8D29"/>
<path d="M37.1243 58.3802C36.5963 55.9993 34.2077 54.487 31.7997 55.0091C29.3918 55.5312 27.8624 57.8931 28.3904 60.274L30.6888 59.7756C30.4387 58.6478 31.1631 57.5291 32.3037 57.2817C33.4444 57.0344 34.5758 57.7507 34.8259 58.8786L37.1243 58.3802Z" fill="#DB4A4D"/>
<path d="M29.7293 60.9037C30.3679 60.7859 30.8113 60.2881 30.7197 59.7917C30.6281 59.2954 30.0362 58.9885 29.3975 59.1063C28.7589 59.2241 28.3155 59.7219 28.4071 60.2183C28.4987 60.7146 29.0907 61.0215 29.7293 60.9037Z" fill="#DB4A4D"/>
<path d="M36.1634 59.5172C36.802 59.3993 37.2454 58.9013 37.1538 58.4047C37.0622 57.9082 36.4702 57.6012 35.8316 57.719C35.193 57.8368 34.7496 58.3349 34.8412 58.8315C34.9328 59.328 35.5247 59.635 36.1634 59.5172Z" fill="#DB4A4D"/>
<path d="M35.0015 64.7575C36.2814 66.8334 39.0339 67.4783 41.1373 66.1952C43.2407 64.9121 43.9107 62.1793 42.6309 60.1035L40.6231 61.3283C41.2294 62.3116 40.9121 63.606 39.9157 64.2138C38.9192 64.8216 37.6155 64.5161 37.0092 63.5328L35.0015 64.7575Z" fill="#DB4A4D"/>
<path d="M42.0626 61.5353C42.6273 61.2145 42.8829 60.5985 42.6334 60.1595C42.384 59.7204 41.724 59.6246 41.1592 59.9455C40.5945 60.2663 40.3389 60.8823 40.5884 61.3213C40.8378 61.7603 41.4978 61.8561 42.0626 61.5353Z" fill="#DB4A4D"/>
<path d="M36.4378 64.9563C37.0026 64.6353 37.2582 64.0192 37.0087 63.58C36.7593 63.1408 36.0992 63.045 35.5345 63.3659C34.9698 63.6869 34.7142 64.303 34.9636 64.7422C35.2131 65.1814 35.8731 65.2772 36.4378 64.9563Z" fill="#DB4A4D"/>
<path d="M30.3251 71.0377C32.4431 69.8281 33.1803 67.0983 31.9685 64.9526C30.7567 62.8069 28.0477 62.0453 25.9297 63.2548L27.0864 65.3029C28.0897 64.73 29.3728 65.0907 29.9469 66.1072C30.5209 67.1236 30.1717 68.4166 29.1684 68.9895L30.3251 71.0377Z" fill="#DB4A4D"/>
<path d="M27.0806 65.3429C27.5277 65.1084 27.6456 64.4518 27.344 63.8765C27.0424 63.3012 26.4354 63.025 25.9883 63.2596C25.5412 63.4942 25.4232 64.1507 25.7248 64.726C26.0265 65.3013 26.6334 65.5775 27.0806 65.3429Z" fill="#DB4A4D"/>
<path d="M30.3075 71.0774C30.7547 70.8428 30.8727 70.1864 30.571 69.6111C30.2693 69.0359 29.6622 68.7597 29.215 68.9943C28.7678 69.2288 28.6498 69.8853 28.9515 70.4605C29.2532 71.0357 29.8603 71.3119 30.3075 71.0774Z" fill="#DB4A4D"/>
<path d="M45.6401 70.9331C48.0701 71.1406 50.2271 69.3131 50.4483 66.8592C50.6696 64.4053 48.8727 62.24 46.4428 62.0325L46.2315 64.3747C47.3826 64.4731 48.2338 65.4986 48.1289 66.6611C48.0241 67.8235 47.0025 68.6892 45.8514 68.5908L45.6401 70.9331Z" fill="#DB4A4D"/>
<path d="M47.2589 63.3467C47.3373 62.7016 46.9947 62.1292 46.4935 62.0682C45.9923 62.0072 45.5225 62.4806 45.444 63.1257C45.3656 63.7708 45.7083 64.3432 46.2094 64.4042C46.7106 64.4652 47.1805 63.9918 47.2589 63.3467Z" fill="#DB4A4D"/>
<path d="M46.6576 69.9016C46.736 69.2571 46.3933 68.6851 45.8922 68.6241C45.391 68.5631 44.9212 69.0362 44.8427 69.6808C44.7643 70.3254 45.107 70.8973 45.6081 70.9583C46.1093 71.0193 46.5791 70.5462 46.6576 69.9016Z" fill="#DB4A4D"/>
<path d="M36.0271 58.3802C35.4991 55.9993 33.1102 54.487 30.702 55.0091C28.2938 55.5312 26.7642 57.8931 27.2923 60.274L29.5909 59.7756C29.3408 58.6478 30.0653 57.5291 31.206 57.2817C32.3468 57.0344 33.4783 57.7507 33.7285 58.8786L36.0271 58.3802Z" fill="#FFAD31"/>
<path d="M28.6334 60.9046C29.2721 60.7867 29.7156 60.2884 29.624 59.7916C29.5324 59.2949 28.9403 58.9877 28.3016 59.1056C27.6628 59.2235 27.2193 59.7218 27.3109 60.2186C27.4025 60.7154 27.9946 61.0225 28.6334 60.9046Z" fill="white"/>
<path d="M35.0675 59.5182C35.7062 59.4003 36.1497 58.9023 36.0581 58.4057C35.9665 57.9091 35.3744 57.6021 34.7356 57.72C34.0969 57.8378 33.6534 58.3359 33.745 58.8324C33.8366 59.329 34.4287 59.636 35.0675 59.5182Z" fill="white"/>
<path d="M33.9072 64.7578C35.1872 66.8336 37.9398 67.4786 40.0433 66.1954C42.1468 64.9123 42.8168 62.1796 41.5368 60.1038L39.529 61.3285C40.1354 62.3119 39.818 63.6062 38.8216 64.214C37.8251 64.8219 36.5213 64.5164 35.915 63.533L33.9072 64.7578Z" fill="#FFAD31"/>
<path d="M40.9662 61.5346C41.531 61.2139 41.7865 60.598 41.5371 60.1591C41.2876 59.7201 40.6276 59.6243 40.0628 59.9451C39.4981 60.2658 39.2425 60.8817 39.492 61.3207C39.7414 61.7596 40.4015 61.8554 40.9662 61.5346Z" fill="white"/>
<path d="M35.3439 64.9554C35.9086 64.6346 36.1642 64.0187 35.9147 63.5797C35.6653 63.1406 35.0052 63.0448 34.4405 63.3656C33.8758 63.6865 33.6202 64.3024 33.8696 64.7414C34.1191 65.1804 34.7791 65.2762 35.3439 64.9554Z" fill="white"/>
<path d="M29.2305 71.0375C31.3484 69.8281 32.0855 67.0987 30.8738 64.9533C29.6621 62.8079 26.9533 62.0463 24.8354 63.2557L25.9921 65.3036C26.9953 64.7307 28.2783 65.0914 28.8523 66.1077C29.4263 67.124 29.0772 68.4168 28.0739 68.9897L29.2305 71.0375Z" fill="#FFAD31"/>
<path d="M25.984 65.3416C26.4312 65.107 26.5492 64.4505 26.2475 63.8753C25.9458 63.3 25.3388 63.0238 24.8915 63.2584C24.4443 63.493 24.3263 64.1494 24.628 64.7247C24.9297 65.3 25.5368 65.5761 25.984 65.3416Z" fill="white"/>
<path d="M29.2145 71.0769C29.6617 70.8423 29.7796 70.1859 29.478 69.6106C29.1763 69.0354 28.5692 68.7592 28.122 68.9938C27.6748 69.2283 27.5568 69.8848 27.8585 70.46C28.1602 71.0352 28.7673 71.3114 29.2145 71.0769Z" fill="white"/>
<path d="M44.5447 70.9338C46.9746 71.1414 49.1316 69.3136 49.3529 66.8594C49.5742 64.4053 47.7773 62.2398 45.3473 62.0322L45.1361 64.3748C46.2872 64.4731 47.1383 65.4988 47.0335 66.6613C46.9287 67.8239 45.907 68.6896 44.7559 68.5913L44.5447 70.9338Z" fill="#FFAD31"/>
<path d="M46.1651 63.3466C46.2436 62.7018 45.9009 62.1296 45.3997 62.0686C44.8986 62.0076 44.4287 62.4809 44.3503 63.1257C44.2718 63.7705 44.6145 64.3427 45.1157 64.4037C45.6169 64.4647 46.0867 63.9914 46.1651 63.3466Z" fill="white"/>
<path d="M45.5639 69.9012C45.6424 69.2561 45.2997 68.6837 44.7985 68.6227C44.2973 68.5616 43.8274 69.0351 43.749 69.6802C43.6705 70.3252 44.0132 70.8976 44.5144 70.9586C45.0156 71.0197 45.4855 70.5462 45.5639 69.9012Z" fill="white"/>
</svg>
