<svg width="37" height="37" viewBox="0 0 37 37" fill="none" xmlns="http://www.w3.org/2000/svg">
<path d="M25.3333 14.3334H21.3333V13.0001C21.3333 11.5856 20.7713 10.229 19.7712 9.22885C18.771 8.22865 17.4144 7.66675 15.9999 7.66675C14.5854 7.66675 13.2289 8.22865 12.2287 9.22885C11.2285 10.229 10.6666 11.5856 10.6666 13.0001V14.3334H6.66659C6.31296 14.3334 5.97383 14.4739 5.72378 14.7239C5.47373 14.974 5.33325 15.3131 5.33325 15.6667L5.33325 30.3334C5.33325 31.3943 5.75468 32.4117 6.50482 33.1618C7.25497 33.912 8.27239 34.3334 9.33325 34.3334H22.6666C23.7275 34.3334 24.7449 33.912 25.495 33.1618C26.2452 32.4117 26.6666 31.3943 26.6666 30.3334V15.6667C26.6666 15.3131 26.5261 14.974 26.2761 14.7239C26.026 14.4739 25.6869 14.3334 25.3333 14.3334ZM13.3333 13.0001C13.3333 12.2928 13.6142 11.6146 14.1143 11.1145C14.6144 10.6144 15.2927 10.3334 15.9999 10.3334C16.7072 10.3334 17.3854 10.6144 17.8855 11.1145C18.3856 11.6146 18.6666 12.2928 18.6666 13.0001V14.3334H13.3333V13.0001ZM23.9999 30.3334C23.9999 30.687 23.8594 31.0262 23.6094 31.2762C23.3593 31.5263 23.0202 31.6667 22.6666 31.6667H9.33325C8.97963 31.6667 8.64049 31.5263 8.39044 31.2762C8.14039 31.0262 7.99992 30.687 7.99992 30.3334L7.99992 17.0001H10.6666V18.3334C10.6666 18.687 10.8071 19.0262 11.0571 19.2762C11.3072 19.5263 11.6463 19.6667 11.9999 19.6667C12.3535 19.6667 12.6927 19.5263 12.9427 19.2762C13.1928 19.0262 13.3333 18.687 13.3333 18.3334V17.0001H18.6666V18.3334C18.6666 18.687 18.8071 19.0262 19.0571 19.2762C19.3072 19.5263 19.6463 19.6667 19.9999 19.6667C20.3535 19.6667 20.6927 19.5263 20.9427 19.2762C21.1928 19.0262 21.3333 18.687 21.3333 18.3334V17.0001H23.9999V30.3334Z" fill="#403C39"/>
<circle cx="32" cy="5" r="5" fill="#F38160"/>
</svg>
